<svg width="159" height="128" viewBox="0 0 159 128" fill="none" xmlns="http://www.w3.org/2000/svg">
<path d="M38.0907 51.0068C47.6916 47.3436 52.1448 35.6607 48.0371 24.9125C43.9295 14.1642 32.8165 8.42076 23.2155 12.0841C13.6146 15.7473 9.16145 27.4302 13.2691 38.1784C17.3768 48.9267 28.4897 54.6701 38.0907 51.0068Z" fill="#A55937"/>
<path d="M32.1192 52.5217C24.0944 52.5217 16.2138 47.0301 12.8982 38.3216C8.69358 27.3744 13.2826 15.419 23.1093 11.6739C32.9361 7.92879 44.3005 13.7985 48.4871 24.7517C52.6917 35.6988 48.0967 47.6543 38.2759 51.3934C36.3107 52.1449 34.2235 52.5275 32.1192 52.5217ZM29.218 11.3978C27.2226 11.3974 25.244 11.7615 23.3796 12.4721C14.0154 16.0731 9.66064 27.5065 13.679 38.0215C17.6974 48.5366 28.5873 54.1722 37.9576 50.6252C47.3278 47.0782 51.6706 35.6208 47.6522 25.0758C44.4567 16.6793 36.8944 11.3978 29.218 11.3978Z" fill="#6D2E1B"/>
<path d="M35.146 43.309C40.9475 41.0954 43.6388 34.0369 41.1571 27.5434C38.6755 21.0498 31.9607 17.5803 26.1593 19.7938C20.3578 22.0074 17.6665 29.0659 20.1482 35.5595C22.6298 42.053 29.3446 45.5226 35.146 43.309Z" fill="#844025"/>
<path d="M137.687 29.2731C140.223 18.0503 134.151 7.11938 124.126 4.85831C114.101 2.59725 103.919 9.86222 101.384 21.0851C98.8488 32.3079 104.92 43.2388 114.945 45.4999C124.97 47.7609 135.152 40.496 137.687 29.2731Z" fill="#A55937"/>
<path d="M118.668 46.346C117.387 46.3473 116.109 46.2043 114.86 45.9198C104.619 43.6092 98.396 32.4279 100.979 20.9946C102.14 15.6022 105.247 10.8253 109.706 7.57469C111.764 6.04712 114.126 4.97768 116.632 4.43832C119.139 3.89896 121.731 3.90219 124.236 4.44779C134.447 6.75846 140.7 17.9397 138.117 29.373C136.957 34.7687 133.848 39.5482 129.384 42.7989C126.272 45.0737 122.524 46.3144 118.668 46.346ZM120.422 4.87391C116.747 4.90809 113.175 6.09418 110.211 8.26489C105.915 11.3912 102.921 15.9891 101.802 21.1807C99.321 32.1578 105.261 42.8829 115.016 45.0916C117.4 45.6037 119.866 45.6009 122.248 45.0833C124.631 44.5658 126.875 43.5455 128.831 42.0907C133.128 38.9644 136.121 34.3665 137.24 29.175C139.721 18.1978 133.781 7.47266 124.026 5.26402C122.843 5.00202 121.634 4.87119 120.422 4.87391Z" fill="#6D2E1B"/>
<path d="M130.504 27.647C132.036 20.8667 128.367 14.2626 122.309 12.8963C116.251 11.5301 110.099 15.919 108.567 22.6992C107.036 29.4795 110.705 36.0836 116.762 37.4499C122.82 38.8161 128.972 34.4272 130.504 27.647Z" fill="#844025"/>
<path d="M157.927 84.6311C147.926 37.3373 110.001 6.71042 73.7451 9.30318C37.4894 11.8959 4.30316 47.6003 1.1377 95.8363C3.23999 91.173 5.51048 86.7197 9.89527 84.9732C5.09002 94.2939 6.03906 104.509 11.493 115.426C10.9704 110.433 9.87125 105.487 13.1268 100.188C14.2921 113.992 19.4938 122.67 28.3474 126.691C25.5784 122.706 23.1518 118.709 24.269 114.508C24.269 114.508 28.6358 128.624 49.9951 127.376C61.0292 126.589 69.8648 120.9 81.6677 120.053C93.4707 119.207 103.033 123.588 114.067 122.796C135.384 120.996 137.697 106.405 137.697 106.405C139.403 110.397 137.565 114.706 135.39 119.039C143.589 113.8 147.5 104.479 146.689 90.6448C150.659 95.4462 150.293 100.476 150.473 105.493C154.311 93.9098 153.807 83.6648 147.716 75.1243C152.305 76.2286 155.182 80.3098 157.927 84.6311Z" fill="#A55937"/>
<path d="M47.4063 127.88C31.9093 127.88 26.125 119.363 24.4431 115.984C24.1428 119.537 26.2451 122.964 28.7018 126.445L29.5848 127.718L28.1732 127.075C19.3676 123.078 14.208 114.508 12.8324 101.592C10.7842 105.697 11.2347 109.556 11.7152 113.595C11.7873 114.196 11.8534 114.796 11.9134 115.354L12.1597 117.689L11.1086 115.588C5.62457 104.605 4.90978 94.582 8.98224 85.8554C5.46239 87.788 3.43818 91.7431 1.52809 95.9864L0.561035 98.135L0.717203 95.7823C2.21884 72.8256 10.7422 51.2914 24.7074 35.1647C38.2643 19.4941 55.6713 10.1554 73.709 8.86505C91.7467 7.57467 110.307 14.3506 125.966 27.9266C142.088 41.9167 153.596 62.0165 158.354 84.529L158.84 86.8337L157.573 84.8711C155.074 80.946 152.509 77.3149 148.749 75.8685C154.023 83.9589 154.756 93.9578 150.875 105.607L150.137 107.834L150.046 105.487C150.046 104.887 150.01 104.287 149.992 103.723C149.89 99.6294 149.788 95.7463 147.175 91.9772C147.656 104.953 143.77 114.184 135.619 119.381L134.315 120.215L135.012 118.835C136.916 115.042 138.538 111.339 137.733 107.87C136.484 111.645 131.534 121.728 114.103 123.204C108.625 123.594 103.634 122.748 98.354 121.854C93.0742 120.96 87.6503 120.053 81.6977 120.461C75.7452 120.87 70.4955 122.574 65.4139 124.207C60.3324 125.839 55.4971 127.394 50.0251 127.808C49.1542 127.856 48.2532 127.88 47.4063 127.88ZM24.2329 112.977L24.6714 114.382C24.7195 114.52 29.2304 128.186 49.9711 126.949C55.3349 126.571 60.1041 125.035 65.1557 123.414C70.2072 121.794 75.5831 120.065 81.6377 119.627C87.6923 119.189 93.1883 120.131 98.4981 121.032C103.808 121.932 108.661 122.76 114.037 122.376C134.742 120.624 137.253 106.477 137.277 106.339L137.511 104.881L138.111 106.237C139.691 109.94 138.34 113.926 136.514 117.767C143.722 112.401 147.031 103.297 146.286 90.6688L146.208 89.3785L147.037 90.3747C150.419 94.4439 150.731 98.7292 150.845 102.9C153.939 91.9772 152.803 82.9506 147.392 75.3704L146.731 74.4461L147.842 74.7102C151.836 75.6765 154.557 78.7794 157.026 82.4344C146.815 38.8678 110.643 7.10054 73.7991 9.7293C36.9548 12.3581 5.64259 48.9567 1.74433 93.5317C3.66643 89.5645 5.94893 86.1015 9.73907 84.583L10.7962 84.1569L10.2737 85.1712C6.00298 93.4416 6.15915 102.54 10.7782 112.911C10.2977 108.764 9.99735 104.479 12.7604 99.9655L13.4391 98.8612L13.5472 100.158C14.6104 112.761 19.1634 121.302 27.08 125.587C24.7255 122.04 22.8214 118.289 23.8545 114.4L24.2329 112.977Z" fill="#6D2E1B"/>
<path d="M53.4737 62.3422C57.3862 61.3609 59.5393 56.5102 58.2826 51.5077C57.026 46.5053 52.8356 43.2454 48.9231 44.2267C45.0106 45.2079 42.8576 50.0586 44.1142 55.0611C45.3708 60.0636 49.5612 63.3234 53.4737 62.3422Z" fill="#3F190D"/>
<path d="M54.0162 63.4789C57.9287 62.4977 60.0817 57.6469 58.8251 52.6445C57.5685 47.642 53.3781 44.3822 49.4656 45.3634C45.5531 46.3447 43.4 51.1954 44.6566 56.1979C45.9133 61.2003 50.1037 64.4602 54.0162 63.4789Z" fill="#844025"/>
<path d="M54.0179 63.5076C56.3024 62.9347 57.5592 60.1011 56.8251 57.1788C56.091 54.2564 53.644 52.3518 51.3595 52.9247C49.0751 53.4976 47.8183 56.3311 48.5524 59.2535C49.2865 62.1759 51.7335 64.0805 54.0179 63.5076Z" fill="#3F190D"/>
<path d="M109.599 50.4012C110.13 45.2709 107.308 40.7756 103.296 40.3606C99.2834 39.9456 95.5998 43.768 95.0683 48.8982C94.5368 54.0285 97.3587 58.5238 101.371 58.9388C105.384 59.3538 109.067 55.5314 109.599 50.4012Z" fill="#3F190D"/>
<path d="M109.223 51.597C109.754 46.4668 106.932 41.9715 102.92 41.5565C98.9074 41.1415 95.2238 44.9639 94.6923 50.0941C94.1608 55.2243 96.9827 59.7196 100.995 60.1347C105.008 60.5497 108.691 56.7272 109.223 51.597Z" fill="#844025"/>
<path d="M105.789 55.163C106.1 52.166 104.452 49.54 102.11 49.2977C99.7668 49.0554 97.6158 51.2885 97.3054 54.2855C96.9949 57.2825 98.6424 59.9085 100.985 60.1509C103.328 60.3932 105.479 58.1601 105.789 55.163Z" fill="#3F190D"/>
<path d="M90.7017 58.8596C84.4669 31.5337 76.394 33.5322 75.481 33.5863C74.568 33.6403 66.291 32.83 64.0145 60.7622C63.1436 68.9125 52.4879 84.355 53.497 93.0095C54.5061 101.664 62.4108 107.588 72.9643 101.616C78.7486 98.2251 80.004 96.7786 80.004 96.7786C80.004 96.7786 81.4516 98.033 87.6624 100.566C98.9547 104.977 105.94 97.985 105.682 89.2765C105.424 80.5679 92.7259 66.7999 90.7017 58.8596Z" fill="#B76C4E"/>
<path d="M93.1886 86.6717C93.3508 88.9403 87.6566 96.3645 80.0162 96.9107C72.3759 97.4568 65.6785 90.9089 65.5164 88.6522C65.3542 86.3956 71.4148 84.0969 79.0552 83.5508C86.6955 83.0046 93.0024 84.403 93.1886 86.6717Z" fill="#3F190D"/>
<path d="M87.6686 100.62C81.4638 98.159 80.0163 96.9347 80.0163 96.9347C80.0163 96.9347 78.7549 98.3511 72.9645 101.67C64.5253 106.327 57.7799 103.585 54.9448 97.985C58.0803 105.343 67.0541 109.742 80.2205 99.3894C94.7263 107.762 102.985 102.132 105.04 94.4079C102.967 100.356 96.6845 104.035 87.6686 100.62Z" fill="#3F190D"/>
<path d="M63.282 107.114L63.2456 107.066L63.282 107.114Z" fill="#3F190D"/>
<path d="M81.1334 112.551C69.8711 113.361 65.0778 107.564 64.6514 107.018C68.856 112.845 74.6343 115.348 81.2896 114.766C87.9629 114.394 93.3027 111.099 96.6604 104.731C96.312 105.331 92.4017 111.747 81.1334 112.551Z" fill="#3F190D"/>
<path d="M98.0234 104.629L98.0538 104.575C98.0475 104.595 98.0371 104.613 98.0234 104.629Z" fill="#3F190D"/>
</svg>
