<svg width="114" height="18" viewBox="0 0 114 18" fill="none" xmlns="http://www.w3.org/2000/svg">
<path d="M15.9628 6.20682L11.4997 5.55819L9.5046 1.51346C9.45011 1.40272 9.36046 1.31307 9.24972 1.25858C8.97198 1.12147 8.63448 1.23572 8.49562 1.51346L6.5005 5.55819L2.03741 6.20682C1.91437 6.2244 1.80187 6.2824 1.71573 6.37029C1.6116 6.47732 1.55422 6.62131 1.5562 6.77062C1.55818 6.91993 1.61935 7.06235 1.72628 7.16658L4.95538 10.3148L4.19249 14.7603C4.1746 14.8637 4.18605 14.9701 4.22553 15.0673C4.265 15.1646 4.33094 15.2488 4.41585 15.3105C4.50077 15.3722 4.60127 15.4088 4.70595 15.4163C4.81063 15.4237 4.91531 15.4017 5.00812 15.3527L9.00011 13.2539L12.9921 15.3527C13.1011 15.4107 13.2277 15.4301 13.3489 15.409C13.6548 15.3562 13.8605 15.0662 13.8077 14.7603L13.0448 10.3148L16.2739 7.16658C16.3618 7.08045 16.4198 6.96795 16.4374 6.8449C16.4849 6.53729 16.2704 6.25252 15.9628 6.20682Z" fill="#F3CE5E"/>
<path d="M39.9628 6.20682L35.4997 5.55819L33.5046 1.51346C33.4501 1.40272 33.3605 1.31307 33.2497 1.25858C32.972 1.12147 32.6345 1.23572 32.4956 1.51346L30.5005 5.55819L26.0374 6.20682C25.9144 6.2244 25.8019 6.2824 25.7157 6.37029C25.6116 6.47732 25.5542 6.62131 25.5562 6.77062C25.5582 6.91993 25.6194 7.06235 25.7263 7.16658L28.9554 10.3148L28.1925 14.7603C28.1746 14.8637 28.186 14.9701 28.2255 15.0673C28.265 15.1646 28.3309 15.2488 28.4159 15.3105C28.5008 15.3722 28.6013 15.4088 28.7059 15.4163C28.8106 15.4237 28.9153 15.4017 29.0081 15.3527L33.0001 13.2539L36.9921 15.3527C37.1011 15.4107 37.2277 15.4301 37.3489 15.409C37.6548 15.3562 37.8605 15.0662 37.8077 14.7603L37.0448 10.3148L40.2739 7.16658C40.3618 7.08045 40.4198 6.96795 40.4374 6.8449C40.4849 6.53729 40.2704 6.25252 39.9628 6.20682Z" fill="#F3CE5E"/>
<path d="M63.9628 6.20682L59.4997 5.55819L57.5046 1.51346C57.4501 1.40272 57.3605 1.31307 57.2497 1.25858C56.972 1.12147 56.6345 1.23572 56.4956 1.51346L54.5005 5.55819L50.0374 6.20682C49.9144 6.2244 49.8019 6.2824 49.7157 6.37029C49.6116 6.47732 49.5542 6.62131 49.5562 6.77062C49.5582 6.91993 49.6194 7.06235 49.7263 7.16658L52.9554 10.3148L52.1925 14.7603C52.1746 14.8637 52.186 14.9701 52.2255 15.0673C52.265 15.1646 52.3309 15.2488 52.4159 15.3105C52.5008 15.3722 52.6013 15.4088 52.7059 15.4163C52.8106 15.4237 52.9153 15.4017 53.0081 15.3527L57.0001 13.2539L60.9921 15.3527C61.1011 15.4107 61.2277 15.4301 61.3489 15.409C61.6548 15.3562 61.8605 15.0662 61.8077 14.7603L61.0448 10.3148L64.2739 7.16658C64.3618 7.08045 64.4198 6.96795 64.4374 6.8449C64.4849 6.53729 64.2704 6.25252 63.9628 6.20682Z" fill="#F3CE5E"/>
<path d="M87.9628 6.20682L83.4997 5.55819L81.5046 1.51346C81.4501 1.40272 81.3605 1.31307 81.2497 1.25858C80.972 1.12147 80.6345 1.23572 80.4956 1.51346L78.5005 5.55819L74.0374 6.20682C73.9144 6.2244 73.8019 6.2824 73.7157 6.37029C73.6116 6.47732 73.5542 6.62131 73.5562 6.77062C73.5582 6.91993 73.6194 7.06235 73.7263 7.16658L76.9554 10.3148L76.1925 14.7603C76.1746 14.8637 76.186 14.9701 76.2255 15.0673C76.265 15.1646 76.3309 15.2488 76.4159 15.3105C76.5008 15.3722 76.6013 15.4088 76.7059 15.4163C76.8106 15.4237 76.9153 15.4017 77.0081 15.3527L81.0001 13.2539L84.9921 15.3527C85.1011 15.4107 85.2277 15.4301 85.3489 15.409C85.6548 15.3562 85.8605 15.0662 85.8077 14.7603L85.0448 10.3148L88.2739 7.16658C88.3618 7.08045 88.4198 6.96795 88.4374 6.8449C88.4849 6.53729 88.2704 6.25252 87.9628 6.20682Z" fill="#F3CE5E"/>
<path d="M111.963 6.20682L107.5 5.55819L105.505 1.51346C105.45 1.40272 105.36 1.31307 105.25 1.25858C104.972 1.12147 104.634 1.23572 104.496 1.51346L102.5 5.55819L98.0374 6.20682C97.9144 6.2244 97.8019 6.2824 97.7157 6.37029C97.6116 6.47732 97.5542 6.62131 97.5562 6.77062C97.5582 6.91993 97.6194 7.06235 97.7263 7.16658L100.955 10.3148L100.192 14.7603C100.175 14.8637 100.186 14.9701 100.226 15.0673C100.265 15.1646 100.331 15.2488 100.416 15.3105C100.501 15.3722 100.601 15.4088 100.706 15.4163C100.811 15.4237 100.915 15.4017 101.008 15.3527L105 13.2539L108.992 15.3527C109.101 15.4107 109.228 15.4301 109.349 15.409C109.655 15.3562 109.86 15.0662 109.808 14.7603L109.045 10.3148L112.274 7.16658C112.362 7.08045 112.42 6.96795 112.437 6.8449C112.485 6.53729 112.27 6.25252 111.963 6.20682Z" fill="#F3CE5E"/>
</svg>
