<svg width="244" height="43" viewBox="0 0 244 43" fill="none" xmlns="http://www.w3.org/2000/svg">
<g clip-path="url(#clip0_1_2307)">
<path d="M58.5567 22.4085C57.9253 22.4085 57.479 22.2801 57.2177 22.0233C56.9782 21.7665 56.8585 21.3599 56.8585 20.8035V2.21845C56.8585 1.66207 56.9891 1.25549 57.2504 0.998703C57.5116 0.720517 57.9471 0.581421 58.5567 0.581421H66.5902C69.6161 0.581421 71.8479 1.202 73.2848 2.44314C74.7217 3.68428 75.4401 5.53531 75.4401 7.99619C75.4401 11.0563 74.2429 13.1641 71.8479 14.3196L75.0809 21.2208C75.1677 21.392 75.2115 21.5632 75.2115 21.7344C75.2115 21.927 75.1351 22.0875 74.9829 22.2159C74.8523 22.3443 74.6674 22.4085 74.4277 22.4085H69.8558C69.5293 22.4085 69.268 22.3656 69.0721 22.2801C68.8977 22.1945 68.7671 22.034 68.6802 21.7986L65.9697 15.2826H63.4551V20.8035C63.4551 21.3599 63.3245 21.7665 63.0633 22.0233C62.802 22.2801 62.3559 22.4085 61.7243 22.4085H58.5567ZM65.8717 10.6925C67.8527 10.6925 68.8435 9.79372 68.8435 7.99619C68.8435 6.1773 67.9075 5.26781 66.035 5.26781H63.4551V10.6925H65.8717ZM84.9056 22.8899C81.9227 22.8899 79.6041 22.1624 77.9497 20.7072C76.2947 19.2307 75.4678 17.2299 75.4678 14.7048C75.4678 12.1797 76.2947 10.1896 77.9497 8.73446C79.6041 7.25793 81.9227 6.51966 84.9056 6.51966C87.8878 6.51966 90.2064 7.25793 91.8614 8.73446C93.5374 10.1896 94.376 12.1797 94.376 14.7048C94.376 17.2299 93.5374 19.2307 91.8614 20.7072C90.2064 22.1624 87.8878 22.8899 84.9056 22.8899ZM84.9056 18.2998C86.8212 18.2998 87.7794 17.1015 87.7794 14.7048C87.7794 12.3509 86.8212 11.174 84.9056 11.174C82.9893 11.174 82.0318 12.3509 82.0318 14.7048C82.0318 15.9032 82.282 16.8019 82.7829 17.4011C83.2832 18.0002 83.9912 18.2998 84.9056 18.2998ZM102.377 22.8899C100.483 22.8899 99.0021 22.4085 97.9355 21.4455C96.8905 20.4612 96.368 18.9632 96.368 16.9517V8.63817C96.368 8.08177 96.4987 7.67521 96.7599 7.41842C97.0212 7.14025 97.4562 7.00114 98.0662 7.00114H101.234C101.865 7.00114 102.312 7.14025 102.573 7.41842C102.834 7.67521 102.965 8.08177 102.965 8.63817V16.6949C102.965 17.9147 103.563 18.5245 104.761 18.5245C105.414 18.5245 105.914 18.3533 106.263 18.011C106.611 17.6686 106.785 17.1871 106.785 16.5665V8.63817C106.785 8.08177 106.916 7.67521 107.177 7.41842C107.439 7.14025 107.885 7.00114 108.516 7.00114H111.684C112.315 7.00114 112.762 7.14025 113.023 7.41842C113.284 7.67521 113.415 8.08177 113.415 8.63817V21.4134C113.415 21.82 113.338 22.0875 113.186 22.2159C113.056 22.3443 112.762 22.4085 112.304 22.4085H108.941C108.68 22.4085 108.473 22.3764 108.32 22.3122C108.19 22.248 108.113 22.1196 108.092 21.927L107.928 20.9319C107.297 21.5311 106.513 22.0126 105.577 22.3764C104.641 22.7187 103.574 22.8899 102.377 22.8899ZM117.939 22.4085C117.308 22.4085 116.861 22.2801 116.6 22.0233C116.338 21.7665 116.208 21.3599 116.208 20.8035V7.99619C116.208 7.61101 116.273 7.35422 116.404 7.22583C116.557 7.07606 116.861 7.00114 117.318 7.00114H120.682C120.943 7.00114 121.139 7.04396 121.27 7.12953C121.422 7.19373 121.509 7.32212 121.531 7.51472L121.694 8.47767C122.304 7.87852 123.098 7.4077 124.078 7.06534C125.08 6.70153 126.19 6.51966 127.409 6.51966C129.172 6.51966 130.599 7.01186 131.687 7.99619C132.776 8.95915 133.32 10.3929 133.32 12.2974V20.8035C133.32 21.3599 133.189 21.7665 132.928 22.0233C132.689 22.2801 132.253 22.4085 131.622 22.4085H128.454C127.823 22.4085 127.366 22.2801 127.082 22.0233C126.821 21.7665 126.691 21.3599 126.691 20.8035V12.7147C126.691 12.0727 126.549 11.6126 126.266 11.3344C125.983 11.0563 125.537 10.9172 124.927 10.9172C124.274 10.9172 123.751 11.0884 123.36 11.4307C122.99 11.7731 122.804 12.2439 122.804 12.8431V20.8035C122.804 21.3599 122.674 21.7665 122.413 22.0233C122.173 22.2801 121.738 22.4085 121.106 22.4085H117.939ZM145.092 22.8899C141.848 22.8899 139.409 22.1945 137.777 20.8035C136.144 19.4126 135.327 17.3476 135.327 14.6085C135.327 12.1476 136.024 10.1896 137.417 8.73446C138.81 7.25793 140.781 6.51966 143.328 6.51966C144.047 6.51966 144.743 6.60524 145.418 6.77645C146.093 6.92622 146.626 7.12953 147.018 7.38632V2.21845C147.018 1.66207 147.149 1.25549 147.41 0.998703C147.671 0.720517 148.118 0.581421 148.749 0.581421H151.786C152.418 0.581421 152.864 0.720517 153.125 0.998703C153.386 1.25549 153.517 1.66207 153.517 2.21845V20.6109C152.581 21.2743 151.362 21.82 149.859 22.248C148.357 22.676 146.768 22.8899 145.092 22.8899ZM145.288 18.5245C146.028 18.5245 146.615 18.4069 147.051 18.1714V13.0036C147.051 11.5912 146.278 10.8851 144.732 10.8851C143.774 10.8851 143.056 11.2274 142.577 11.9122C142.12 12.5756 141.891 13.4851 141.891 14.6406C141.891 16.0316 142.174 17.0266 142.74 17.6258C143.307 18.2249 144.156 18.5245 145.288 18.5245ZM168.805 22.4085C168.173 22.4085 167.727 22.2801 167.466 22.0233C167.226 21.7665 167.106 21.3599 167.106 20.8035V2.21845C167.106 1.66207 167.237 1.25549 167.498 0.998703C167.76 0.720517 168.195 0.581421 168.805 0.581421H176.838C179.864 0.581421 182.096 1.202 183.533 2.44314C184.97 3.68428 185.688 5.53531 185.688 7.99619C185.688 11.0563 184.49 13.1641 182.096 14.3196L185.329 21.2208C185.416 21.392 185.459 21.5632 185.459 21.7344C185.459 21.927 185.383 22.0875 185.231 22.2159C185.1 22.3443 184.915 22.4085 184.676 22.4085H180.104C179.777 22.4085 179.516 22.3656 179.32 22.2801C179.146 22.1945 179.015 22.034 178.928 21.7986L176.218 15.2826H173.703V20.8035C173.703 21.3599 173.572 21.7665 173.311 22.0233C173.05 22.2801 172.603 22.4085 171.972 22.4085H168.805ZM176.12 10.6925C178.101 10.6925 179.091 9.79372 179.091 7.99619C179.091 6.1773 178.155 5.26781 176.283 5.26781H173.703V10.6925H176.12ZM195.153 22.8899C192.171 22.8899 189.852 22.1624 188.197 20.7072C186.543 19.2307 185.715 17.2299 185.715 14.7048C185.715 12.1797 186.543 10.1896 188.197 8.73446C189.852 7.25793 192.171 6.51966 195.153 6.51966C198.136 6.51966 200.454 7.25793 202.109 8.73446C203.785 10.1896 204.623 12.1797 204.623 14.7048C204.623 17.2299 203.785 19.2307 202.109 20.7072C200.454 22.1624 198.136 22.8899 195.153 22.8899ZM195.153 18.2998C197.069 18.2998 198.027 17.1015 198.027 14.7048C198.027 12.3509 197.069 11.174 195.153 11.174C193.237 11.174 192.279 12.3509 192.279 14.7048C192.279 15.9032 192.53 16.8019 193.03 17.4011C193.531 18.0002 194.239 18.2998 195.153 18.2998ZM214.832 22.8899C211.784 22.8899 209.433 22.1945 207.779 20.8035C206.124 19.4126 205.297 17.3904 205.297 14.7369C205.297 13.1106 205.678 11.6768 206.44 10.4357C207.201 9.19456 208.301 8.2316 209.738 7.54681C211.197 6.86202 212.916 6.51966 214.898 6.51966C216.4 6.51966 217.663 6.65877 218.686 6.93694C219.731 7.21511 220.656 7.64311 221.462 8.22088C221.701 8.37066 221.821 8.56325 221.821 8.79866C221.821 8.96987 221.734 9.19456 221.56 9.47273L220.221 11.7517C220.068 12.0513 219.883 12.2011 219.666 12.2011C219.535 12.2011 219.328 12.1155 219.045 11.9443C218.457 11.5805 217.902 11.3131 217.38 11.1419C216.879 10.9706 216.247 10.8851 215.486 10.8851C214.397 10.8851 213.515 11.2274 212.84 11.9122C212.187 12.597 211.861 13.5385 211.861 14.7369C211.861 15.9566 212.198 16.8982 212.873 17.5616C213.548 18.2035 214.473 18.5245 215.649 18.5245C216.345 18.5245 216.977 18.4282 217.543 18.2356C218.109 18.0431 218.686 17.7755 219.274 17.4332C219.578 17.262 219.796 17.1764 219.927 17.1764C220.123 17.1764 220.297 17.3262 220.449 17.6258L221.919 20.0974C222.027 20.3113 222.082 20.4825 222.082 20.6109C222.082 20.8035 221.952 20.9854 221.69 21.1566C220.776 21.7344 219.774 22.1624 218.686 22.4406C217.619 22.7402 216.335 22.8899 214.832 22.8899ZM241.955 21.1887C242.108 21.3599 242.184 21.5525 242.184 21.7665C242.184 21.9591 242.119 22.1196 241.988 22.248C241.857 22.355 241.683 22.4085 241.465 22.4085H236.404C236.099 22.4085 235.87 22.3871 235.718 22.3443C235.587 22.2801 235.446 22.1624 235.293 21.9912L230.852 16.0529V20.8035C230.852 21.3599 230.721 21.7665 230.46 22.0233C230.199 22.2801 229.752 22.4085 229.121 22.4085H225.954C225.322 22.4085 224.876 22.2801 224.615 22.0233C224.375 21.7665 224.255 21.3599 224.255 20.8035V2.21845C224.255 1.66207 224.386 1.25549 224.647 0.998703C224.909 0.720517 225.344 0.581421 225.954 0.581421H229.121C229.752 0.581421 230.199 0.720517 230.46 0.998703C230.721 1.25549 230.852 1.66207 230.852 2.21845V12.9715L235.163 7.45052C235.293 7.27931 235.434 7.16163 235.587 7.09743C235.739 7.03324 235.968 7.00114 236.273 7.00114H241.335C241.552 7.00114 241.716 7.06534 241.825 7.19373C241.955 7.30075 242.021 7.45052 242.021 7.64311C242.021 7.85708 241.944 8.04967 241.792 8.22088L236.208 14.5122L241.955 21.1887ZM62.0589 40.2171C60.0847 40.2171 58.5542 39.7266 57.4673 38.7454C56.3804 37.7534 55.8369 36.309 55.8369 34.4121C55.8369 32.5044 56.3637 31.0599 57.4174 30.0788C58.4821 29.0977 59.996 28.6071 61.9591 28.6071C62.8131 28.6071 63.5839 28.6943 64.2715 28.8688C64.9592 29.0323 65.5359 29.2667 66.0017 29.5719C66.1237 29.6482 66.1847 29.7463 66.1847 29.8662C66.1847 29.9425 66.1459 30.057 66.0683 30.2096L65.3529 31.4033C65.2864 31.5451 65.1976 31.6159 65.0867 31.6159C65.0202 31.6159 64.9093 31.5778 64.754 31.5014C64.0886 31.1417 63.3066 30.9618 62.4083 30.9618C61.3768 30.9618 60.5783 31.2562 60.0126 31.8448C59.4581 32.4226 59.1808 33.2784 59.1808 34.4121C59.1808 35.5459 59.4803 36.4071 60.0792 36.9958C60.6781 37.5844 61.4933 37.8788 62.5247 37.8788C63.4342 37.8788 64.2383 37.6989 64.937 37.3391C65.0923 37.2628 65.2032 37.2247 65.2697 37.2247C65.3695 37.2247 65.4583 37.2901 65.5359 37.4209L66.2846 38.68C66.3511 38.789 66.3844 38.8871 66.3844 38.9744C66.3844 39.0725 66.3178 39.1706 66.1847 39.2687C65.2531 39.901 63.8778 40.2171 62.0589 40.2171ZM70.8213 39.9718C70.4997 39.9718 70.2723 39.9064 70.1393 39.7756C70.0173 39.6448 69.9563 39.4377 69.9563 39.1542V29.6864C69.9563 29.4029 70.0228 29.1958 70.1559 29.065C70.289 28.9233 70.5108 28.8524 70.8213 28.8524H72.4351C72.7567 28.8524 72.9841 28.9233 73.1172 29.065C73.2503 29.1958 73.3168 29.4029 73.3168 29.6864V39.1542C73.3168 39.4377 73.2503 39.6448 73.1172 39.7756C72.9841 39.9064 72.7567 39.9718 72.4351 39.9718H70.8213ZM81.7533 40.2171C80.8217 40.2171 79.9898 40.0645 79.2578 39.7593C78.5369 39.454 77.9657 38.9962 77.5443 38.3857C77.1228 37.7752 76.9121 37.0285 76.9121 36.1454C76.9121 34.761 77.3114 33.7035 78.1099 32.9731C78.9085 32.2427 80.0564 31.8775 81.5537 31.8775C83.0177 31.8775 84.1267 32.2373 84.8809 32.9568C85.6462 33.6654 86.0288 34.652 86.0288 35.9165C86.0288 36.4616 85.7848 36.7341 85.2968 36.7341H80.073C80.073 37.2029 80.2505 37.5626 80.6054 37.8134C80.9714 38.0641 81.5204 38.1895 82.2524 38.1895C82.7071 38.1895 83.0842 38.1513 83.3837 38.075C83.6942 37.9878 84.0047 37.8624 84.3153 37.6989C84.4484 37.6444 84.5371 37.6171 84.5815 37.6171C84.6813 37.6171 84.7645 37.6825 84.831 37.8134L85.3967 38.8599C85.4521 38.9689 85.4798 39.0507 85.4798 39.1052C85.4798 39.2033 85.4133 39.296 85.2802 39.3832C84.8255 39.6775 84.3097 39.8901 83.733 40.0209C83.1563 40.1517 82.4964 40.2171 81.7533 40.2171ZM83.0343 35.1153C83.0343 34.701 82.9123 34.3794 82.6683 34.1505C82.4243 33.9216 82.0583 33.8071 81.5703 33.8071C81.0823 33.8071 80.7107 33.927 80.4557 34.1668C80.2006 34.3958 80.073 34.7119 80.073 35.1153H83.0343ZM92.729 40.2171C91.6864 40.2171 90.8491 39.8901 90.2169 39.236C89.5958 38.571 89.2853 37.6389 89.2853 36.4398C89.2853 35.5241 89.496 34.7228 89.9174 34.036C90.35 33.3492 90.9544 32.8205 91.7308 32.4499C92.5182 32.0683 93.4222 31.8775 94.4425 31.8775C95.2854 31.8775 96.0285 31.9702 96.6718 32.1555C97.3262 32.33 97.9251 32.5861 98.4685 32.9241V39.4649C98.4685 39.6721 98.4297 39.8083 98.3521 39.8737C98.2744 39.9391 98.1192 39.9718 97.8862 39.9718H96.1893C96.0673 39.9718 95.9731 39.9555 95.9065 39.9228C95.84 39.8792 95.7845 39.8138 95.7402 39.7266L95.5239 39.236C95.2023 39.5739 94.8141 39.8192 94.3593 39.9718C93.9157 40.1354 93.3722 40.2171 92.729 40.2171ZM93.9767 37.9932C94.4093 37.9932 94.7475 37.8897 94.9915 37.6825C95.2355 37.4754 95.3575 37.1811 95.3575 36.7995V34.2486C95.1468 34.1505 94.8806 34.1014 94.559 34.1014C93.9712 34.1014 93.4998 34.3031 93.1449 34.7065C92.8011 35.1098 92.6292 35.6767 92.6292 36.4071C92.6292 37.4645 93.0783 37.9932 93.9767 37.9932ZM103.279 39.9718C102.957 39.9718 102.73 39.9064 102.597 39.7756C102.464 39.6448 102.397 39.4377 102.397 39.1542V32.6297C102.397 32.4335 102.43 32.3027 102.497 32.2373C102.575 32.161 102.73 32.1228 102.963 32.1228H104.676C104.809 32.1228 104.909 32.1446 104.976 32.1882C105.053 32.2209 105.098 32.2863 105.109 32.3845L105.192 32.875C105.503 32.5698 105.907 32.33 106.407 32.1555C106.917 31.9702 107.482 31.8775 108.103 31.8775C109.002 31.8775 109.728 32.1283 110.283 32.6297C110.837 33.1203 111.115 33.8507 111.115 34.8209V39.1542C111.115 39.4377 111.048 39.6448 110.915 39.7756C110.793 39.9064 110.571 39.9718 110.25 39.9718H108.636C108.314 39.9718 108.081 39.9064 107.937 39.7756C107.804 39.6448 107.737 39.4377 107.737 39.1542V35.0335C107.737 34.7065 107.665 34.4721 107.521 34.3304C107.377 34.1886 107.15 34.1178 106.839 34.1178C106.506 34.1178 106.24 34.205 106.041 34.3794C105.852 34.5538 105.758 34.7937 105.758 35.0989V39.1542C105.758 39.4377 105.691 39.6448 105.558 39.7756C105.436 39.9064 105.214 39.9718 104.893 39.9718H103.279ZM116.13 31.2889C115.753 31.2889 115.465 31.1908 115.265 30.9945C115.065 30.7874 114.966 30.5476 114.966 30.275V29.8826C114.966 29.5991 115.065 29.3593 115.265 29.1631C115.465 28.956 115.753 28.8524 116.13 28.8524H117.328C117.716 28.8524 118.01 28.956 118.21 29.1631C118.409 29.3593 118.509 29.5991 118.509 29.8826V30.275C118.509 30.5476 118.409 30.7874 118.21 30.9945C118.01 31.1908 117.716 31.2889 117.328 31.2889H116.13ZM115.931 39.9718C115.609 39.9718 115.382 39.9064 115.248 39.7756C115.115 39.6448 115.049 39.4377 115.049 39.1542V32.9568C115.049 32.6733 115.115 32.4662 115.248 32.3354C115.382 32.1937 115.609 32.1228 115.931 32.1228H117.528C117.849 32.1228 118.077 32.1937 118.21 32.3354C118.354 32.4662 118.426 32.6733 118.426 32.9568V39.1542C118.426 39.4377 118.354 39.6448 118.21 39.7756C118.077 39.9064 117.849 39.9718 117.528 39.9718H115.931ZM123.314 39.9718C122.992 39.9718 122.765 39.9064 122.632 39.7756C122.499 39.6448 122.432 39.4377 122.432 39.1542V32.6297C122.432 32.4335 122.466 32.3027 122.532 32.2373C122.61 32.161 122.765 32.1228 122.998 32.1228H124.711C124.845 32.1228 124.944 32.1446 125.011 32.1882C125.089 32.2209 125.133 32.2863 125.144 32.3845L125.227 32.875C125.538 32.5698 125.943 32.33 126.442 32.1555C126.952 31.9702 127.517 31.8775 128.139 31.8775C129.037 31.8775 129.763 32.1283 130.318 32.6297C130.872 33.1203 131.15 33.8507 131.15 34.8209V39.1542C131.15 39.4377 131.083 39.6448 130.95 39.7756C130.828 39.9064 130.606 39.9718 130.285 39.9718H128.671C128.349 39.9718 128.116 39.9064 127.972 39.7756C127.839 39.6448 127.773 39.4377 127.773 39.1542V35.0335C127.773 34.7065 127.7 34.4721 127.556 34.3304C127.412 34.1886 127.185 34.1178 126.874 34.1178C126.541 34.1178 126.275 34.205 126.076 34.3794C125.887 34.5538 125.793 34.7937 125.793 35.0989V39.1542C125.793 39.4377 125.726 39.6448 125.593 39.7756C125.471 39.9064 125.249 39.9718 124.928 39.9718H123.314ZM139.376 42.7517C138.711 42.7517 138.029 42.6754 137.33 42.5228C136.642 42.3811 136.132 42.1957 135.799 41.9668C135.722 41.9014 135.683 41.8305 135.683 41.7542C135.683 41.6997 135.699 41.6452 135.733 41.5907L136.448 40.2989C136.481 40.2444 136.515 40.1953 136.548 40.1517C136.592 40.119 136.637 40.1027 136.681 40.1027C136.703 40.1027 136.77 40.1245 136.881 40.1681C137.402 40.4297 138.123 40.5605 139.043 40.5605C139.565 40.5605 139.958 40.4515 140.225 40.2335C140.491 40.0154 140.624 39.6612 140.624 39.1706C140.402 39.3232 140.125 39.4486 139.792 39.5467C139.459 39.6339 139.104 39.6775 138.727 39.6775C137.407 39.6775 136.398 39.3559 135.699 38.7127C135.012 38.0695 134.668 37.1375 134.668 35.9165C134.668 34.5865 135.089 33.5836 135.932 32.9077C136.775 32.2209 138.023 31.8775 139.676 31.8775C140.507 31.8775 141.3 31.992 142.055 32.2209C142.809 32.4499 143.435 32.7388 143.934 33.0876V38.3039C143.934 39.6339 143.546 40.7077 142.77 41.5253C141.994 42.3429 140.862 42.7517 139.376 42.7517ZM139.459 37.3719C140.258 37.3719 140.657 36.9958 140.657 36.2436V34.265C140.424 34.1668 140.036 34.1178 139.493 34.1178C139.005 34.1178 138.633 34.2377 138.378 34.4775C138.134 34.7174 138.012 35.148 138.012 35.7693C138.012 36.3253 138.128 36.7341 138.361 36.9958C138.594 37.2465 138.96 37.3719 139.459 37.3719ZM160.456 40.2171C159.525 40.2171 158.643 40.1245 157.811 39.9391C156.979 39.7429 156.308 39.4704 155.798 39.1215C155.61 39.0016 155.515 38.8762 155.515 38.7454C155.515 38.6582 155.549 38.5656 155.615 38.4674L156.43 37.192C156.519 37.0612 156.608 36.9958 156.696 36.9958C156.752 36.9958 156.846 37.0339 156.979 37.1102C157.39 37.3391 157.855 37.5245 158.377 37.6662C158.898 37.8079 159.414 37.8788 159.924 37.8788C160.445 37.8788 160.828 37.8025 161.072 37.6498C161.327 37.4972 161.454 37.2519 161.454 36.914C161.454 36.587 161.316 36.3308 161.039 36.1454C160.772 35.9601 160.268 35.7257 159.525 35.4423C158.404 35.028 157.528 34.5647 156.896 34.0524C156.275 33.5291 155.964 32.8205 155.964 31.9266C155.964 30.8474 156.358 30.0243 157.146 29.4574C157.933 28.8906 158.981 28.6071 160.29 28.6071C161.199 28.6071 161.976 28.6889 162.619 28.8524C163.273 29.005 163.828 29.2449 164.283 29.5719C164.471 29.7136 164.565 29.8444 164.565 29.9643C164.565 30.0407 164.532 30.1279 164.466 30.226L163.65 31.5014C163.551 31.6323 163.462 31.6977 163.384 31.6977C163.329 31.6977 163.234 31.6595 163.101 31.5832C162.458 31.169 161.693 30.9618 160.806 30.9618C160.329 30.9618 159.963 31.0381 159.708 31.1908C159.452 31.3434 159.325 31.5941 159.325 31.943C159.325 32.1828 159.392 32.379 159.525 32.5316C159.658 32.6842 159.835 32.8205 160.057 32.9404C160.29 33.0494 160.645 33.1912 161.122 33.3656L161.438 33.48C162.259 33.7962 162.902 34.1014 163.368 34.3958C163.845 34.6792 164.205 35.0335 164.449 35.4587C164.693 35.8729 164.815 36.3962 164.815 37.0285C164.815 37.9987 164.443 38.7727 163.7 39.3505C162.968 39.9282 161.887 40.2171 160.456 40.2171ZM172.925 40.2171C171.993 40.2171 171.161 40.0645 170.429 39.7593C169.709 39.454 169.137 38.9962 168.716 38.3857C168.294 37.7752 168.084 37.0285 168.084 36.1454C168.084 34.761 168.483 33.7035 169.282 32.9731C170.08 32.2427 171.228 31.8775 172.725 31.8775C174.189 31.8775 175.298 32.2373 176.053 32.9568C176.818 33.6654 177.2 34.652 177.2 35.9165C177.2 36.4616 176.956 36.7341 176.468 36.7341H171.245C171.245 37.2029 171.422 37.5626 171.777 37.8134C172.143 38.0641 172.692 38.1895 173.424 38.1895C173.879 38.1895 174.256 38.1513 174.555 38.075C174.866 37.9878 175.176 37.8624 175.487 37.6989C175.62 37.6444 175.709 37.6171 175.753 37.6171C175.853 37.6171 175.936 37.6825 176.003 37.8134L176.568 38.8599C176.624 38.9689 176.651 39.0507 176.651 39.1052C176.651 39.2033 176.585 39.296 176.452 39.3832C175.997 39.6775 175.481 39.8901 174.905 40.0209C174.328 40.1517 173.668 40.2171 172.925 40.2171ZM174.206 35.1153C174.206 34.701 174.084 34.3794 173.84 34.1505C173.596 33.9216 173.23 33.8071 172.742 33.8071C172.254 33.8071 171.882 33.927 171.627 34.1668C171.372 34.3958 171.245 34.7119 171.245 35.1153H174.206ZM181.671 39.9718C181.35 39.9718 181.122 39.9064 180.989 39.7756C180.856 39.6448 180.79 39.4377 180.79 39.1542V32.6297C180.79 32.4335 180.823 32.3027 180.889 32.2373C180.967 32.161 181.122 32.1228 181.355 32.1228H183.069C183.202 32.1228 183.302 32.1446 183.368 32.1882C183.446 32.2209 183.49 32.2863 183.501 32.3845L183.584 32.8587C184.25 32.2046 185.054 31.8775 185.997 31.8775C186.363 31.8775 186.662 31.9102 186.895 31.9757C187.128 32.0302 187.339 32.1228 187.527 32.2536C187.638 32.33 187.694 32.4172 187.694 32.5153C187.694 32.548 187.683 32.6079 187.66 32.6952L187.128 34.1832C187.084 34.3358 187 34.4121 186.878 34.4121C186.823 34.4121 186.756 34.3903 186.679 34.3467C186.379 34.1832 186.019 34.1014 185.597 34.1014C185.176 34.1014 184.827 34.2159 184.549 34.4448C184.283 34.6738 184.15 34.979 184.15 35.3605V39.1542C184.15 39.4377 184.084 39.6448 183.95 39.7756C183.828 39.9064 183.607 39.9718 183.285 39.9718H181.671ZM194.696 39.9718C194.486 39.9718 194.325 39.9337 194.214 39.8574C194.114 39.7811 194.014 39.6393 193.914 39.4322L190.704 32.7442C190.648 32.6352 190.62 32.5371 190.62 32.4499C190.62 32.3518 190.648 32.2754 190.704 32.2209C190.77 32.1555 190.859 32.1228 190.97 32.1228H193.399C193.565 32.1228 193.693 32.1555 193.781 32.2209C193.87 32.2863 193.942 32.3899 193.998 32.5316L195.428 36.2599L196.859 32.5316C196.915 32.3899 196.987 32.2863 197.075 32.2209C197.164 32.1555 197.292 32.1228 197.458 32.1228H199.904C200.014 32.1228 200.098 32.1555 200.153 32.2209C200.22 32.2754 200.253 32.3518 200.253 32.4499C200.253 32.5371 200.225 32.6352 200.17 32.7442L196.959 39.4322C196.859 39.6393 196.754 39.7811 196.643 39.8574C196.543 39.9337 196.388 39.9718 196.177 39.9718H194.696ZM205.011 31.2889C204.634 31.2889 204.345 31.1908 204.146 30.9945C203.946 30.7874 203.846 30.5476 203.846 30.275V29.8826C203.846 29.5991 203.946 29.3593 204.146 29.1631C204.345 28.956 204.634 28.8524 205.011 28.8524H206.209C206.597 28.8524 206.891 28.956 207.09 29.1631C207.29 29.3593 207.39 29.5991 207.39 29.8826V30.275C207.39 30.5476 207.29 30.7874 207.09 30.9945C206.891 31.1908 206.597 31.2889 206.209 31.2889H205.011ZM204.811 39.9718C204.49 39.9718 204.262 39.9064 204.129 39.7756C203.996 39.6448 203.93 39.4377 203.93 39.1542V32.9568C203.93 32.6733 203.996 32.4662 204.129 32.3354C204.262 32.1937 204.49 32.1228 204.811 32.1228H206.408C206.73 32.1228 206.957 32.1937 207.09 32.3354C207.235 32.4662 207.307 32.6733 207.307 32.9568V39.1542C207.307 39.4377 207.235 39.6448 207.09 39.7756C206.957 39.9064 206.73 39.9718 206.408 39.9718H204.811ZM215.839 40.2171C214.286 40.2171 213.088 39.8628 212.245 39.1542C211.402 38.4456 210.981 37.4155 210.981 36.0637C210.981 35.2352 211.175 34.5048 211.563 33.8725C211.951 33.2402 212.511 32.7497 213.243 32.4008C213.987 32.052 214.863 31.8775 215.872 31.8775C216.637 31.8775 217.281 31.9484 217.802 32.0901C218.334 32.2318 218.806 32.4499 219.216 32.7442C219.338 32.8205 219.399 32.9186 219.399 33.0385C219.399 33.1258 219.355 33.2402 219.266 33.3819L218.584 34.5429C218.506 34.6956 218.412 34.7719 218.301 34.7719C218.234 34.7719 218.129 34.7283 217.985 34.6411C217.685 34.4557 217.403 34.3195 217.136 34.2322C216.881 34.145 216.56 34.1014 216.171 34.1014C215.617 34.1014 215.168 34.2759 214.824 34.6247C214.491 34.9735 214.325 35.4532 214.325 36.0637C214.325 36.6851 214.497 37.1647 214.84 37.5027C215.184 37.8297 215.656 37.9932 216.255 37.9932C216.61 37.9932 216.931 37.9442 217.219 37.8461C217.508 37.748 217.802 37.6117 218.101 37.4373C218.257 37.3501 218.367 37.3064 218.434 37.3064C218.534 37.3064 218.623 37.3828 218.7 37.5354L219.449 38.7945C219.504 38.9035 219.532 38.9907 219.532 39.0561C219.532 39.1542 219.465 39.2469 219.332 39.3341C218.867 39.6284 218.356 39.8465 217.802 39.9882C217.258 40.1408 216.604 40.2171 215.839 40.2171ZM227.643 40.2171C226.711 40.2171 225.88 40.0645 225.148 39.7593C224.427 39.454 223.856 38.9962 223.434 38.3857C223.013 37.7752 222.802 37.0285 222.802 36.1454C222.802 34.761 223.201 33.7035 224 32.9731C224.798 32.2427 225.946 31.8775 227.443 31.8775C228.907 31.8775 230.017 32.2373 230.771 32.9568C231.536 33.6654 231.919 34.652 231.919 35.9165C231.919 36.4616 231.675 36.7341 231.187 36.7341H225.963C225.963 37.2029 226.14 37.5626 226.495 37.8134C226.861 38.0641 227.41 38.1895 228.142 38.1895C228.597 38.1895 228.974 38.1513 229.273 38.075C229.584 37.9878 229.895 37.8624 230.205 37.6989C230.338 37.6444 230.427 37.6171 230.471 37.6171C230.571 37.6171 230.654 37.6825 230.721 37.8134L231.286 38.8599C231.342 38.9689 231.37 39.0507 231.37 39.1052C231.37 39.2033 231.303 39.296 231.17 39.3832C230.715 39.6775 230.2 39.8901 229.623 40.0209C229.046 40.1517 228.386 40.2171 227.643 40.2171ZM228.924 35.1153C228.924 34.701 228.802 34.3794 228.558 34.1505C228.314 33.9216 227.948 33.8071 227.46 33.8071C226.972 33.8071 226.601 33.927 226.345 34.1668C226.09 34.3958 225.963 34.7119 225.963 35.1153H228.924ZM239.367 40.2171C237.804 40.2171 236.512 39.9337 235.491 39.3668C235.28 39.236 235.175 39.1215 235.175 39.0234C235.175 38.9689 235.203 38.8871 235.258 38.7781L235.957 37.5517C236.024 37.4209 236.107 37.3555 236.207 37.3555C236.273 37.3555 236.367 37.3882 236.489 37.4536C236.8 37.6171 237.194 37.7698 237.671 37.9115C238.159 38.0423 238.591 38.1077 238.968 38.1077C239.323 38.1077 239.578 38.075 239.733 38.0096C239.889 37.9333 239.966 37.8134 239.966 37.6498C239.966 37.4972 239.855 37.3719 239.634 37.2737C239.423 37.1647 239.035 37.0285 238.469 36.8649L238.103 36.7668C237.183 36.4943 236.517 36.1836 236.107 35.8348C235.696 35.4859 235.491 34.9899 235.491 34.3467C235.491 33.5509 235.841 32.9404 236.539 32.5153C237.238 32.0901 238.175 31.8775 239.351 31.8775C240.083 31.8775 240.721 31.943 241.264 32.0738C241.807 32.2046 242.329 32.4008 242.828 32.6624C243.027 32.7715 243.127 32.8914 243.127 33.0222C243.127 33.0985 243.094 33.1966 243.027 33.3165L242.345 34.3794C242.268 34.4993 242.19 34.5593 242.112 34.5593C242.046 34.5593 241.957 34.5266 241.846 34.4612C241.58 34.3195 241.27 34.205 240.915 34.1178C240.56 34.0306 240.216 33.987 239.883 33.987C239.118 33.987 238.735 34.1505 238.735 34.4775C238.735 34.6301 238.857 34.761 239.101 34.87C239.356 34.9681 239.745 35.0771 240.266 35.197C240.388 35.2297 240.554 35.2733 240.765 35.3278C240.987 35.3823 241.17 35.4369 241.314 35.4914C241.846 35.6767 242.257 35.8675 242.545 36.0637C242.833 36.249 243.039 36.4725 243.161 36.7341C243.283 36.9849 243.344 37.3064 243.344 37.6989C243.344 38.1677 243.199 38.5928 242.911 38.9744C242.623 39.345 242.179 39.6448 241.58 39.8737C240.981 40.1027 240.244 40.2171 239.367 40.2171Z" fill="#7C4032"/>
<path d="M16.2942 35.2501H13.2574V30.743H29.8754V35.2501H26.837C26.6852 35.2501 26.5396 35.3093 26.4322 35.4147C26.3249 35.52 26.2645 35.6629 26.2645 35.8118C26.2645 35.9608 26.3249 36.1037 26.4322 36.209C26.5396 36.3143 26.6852 36.3736 26.837 36.3736H29.8964C30.194 36.3731 30.4792 36.257 30.6896 36.0505C30.9 35.8441 31.0184 35.5643 31.0188 35.2723V30.7248C31.0184 30.4328 30.9 30.153 30.6896 29.9465C30.4792 29.7401 30.194 29.624 29.8964 29.6235H13.2356C12.938 29.6237 12.6527 29.7398 12.4422 29.9463C12.2318 30.1528 12.1135 30.4327 12.1133 30.7248V35.2723C12.1137 35.5643 12.2321 35.8441 12.4425 36.0505C12.6529 36.257 12.9381 36.3731 13.2356 36.3736H16.2942C16.4461 36.3736 16.5917 36.3143 16.699 36.209C16.8064 36.1037 16.8667 35.9608 16.8667 35.8118C16.8667 35.6629 16.8064 35.52 16.699 35.4147C16.5917 35.3093 16.4461 35.2501 16.2942 35.2501Z" fill="#7C4032"/>
<path d="M29.3644 31.9338C29.3644 31.8968 29.357 31.8603 29.3426 31.8262C29.3282 31.7922 29.3071 31.7612 29.2804 31.7351C29.2538 31.7091 29.2222 31.6884 29.1874 31.6744C29.1526 31.6603 29.1154 31.6532 29.0778 31.6533H14.0593C13.9835 31.6533 13.9108 31.6829 13.8572 31.7354C13.8036 31.788 13.7734 31.8594 13.7734 31.9338C13.7734 32.0082 13.8036 32.0795 13.8572 32.1321C13.9108 32.1846 13.9835 32.2142 14.0593 32.2142H29.0778C29.1154 32.2143 29.1526 32.2072 29.1874 32.1931C29.2222 32.1791 29.2538 32.1584 29.2804 32.1324C29.3071 32.1063 29.3282 32.0753 29.3426 32.0413C29.357 32.0072 29.3644 31.9707 29.3644 31.9338Z" fill="#7C4032"/>
<path d="M9.98487 27.5329C9.91 27.5397 9.8373 27.561 9.77081 27.5954C9.70439 27.6299 9.64555 27.6769 9.59761 27.7337C9.54967 27.7905 9.51363 27.856 9.49157 27.9265C9.46945 27.9969 9.46175 28.071 9.46889 28.1444L10.0939 34.6758C10.1073 34.8149 10.173 34.944 10.2783 35.038C10.3836 35.1321 10.5207 35.1843 10.6631 35.1844H10.7172C10.8683 35.1704 11.0074 35.0981 11.1042 34.9834C11.2009 34.8687 11.2473 34.7211 11.2331 34.5728L10.6082 28.0407C10.6013 27.9671 10.5797 27.8957 10.5447 27.8303C10.5096 27.765 10.4617 27.7071 10.4038 27.6599C10.3459 27.6128 10.2791 27.5772 10.2072 27.5554C10.1353 27.5336 10.0597 27.5259 9.98487 27.5329Z" fill="#7C4032"/>
<path d="M8.85135 19.7718C8.79774 19.8297 8.75707 19.898 8.73193 19.9722C8.70679 20.0464 8.69767 20.125 8.70519 20.2028L9.11697 24.4921C9.13965 24.6333 9.2163 24.7607 9.3314 24.8484C9.44643 24.936 9.59123 24.9773 9.73628 24.9639C9.88132 24.9505 10.0156 24.8833 10.112 24.776C10.2083 24.6688 10.2593 24.5295 10.2547 24.3867L9.90178 20.7115H33.2289L31.8942 34.5703C31.88 34.7186 31.9264 34.8663 32.0232 34.981C32.1199 35.0956 32.2591 35.1679 32.4102 35.182C32.4279 35.182 32.4465 35.182 32.4643 35.182C32.6059 35.1808 32.7421 35.1282 32.8465 35.0343C32.9509 34.9403 33.0161 34.8118 33.0295 34.6734L34.4199 20.2004C34.4273 20.1226 34.418 20.0441 34.3928 19.9699C34.3675 19.8958 34.3267 19.8276 34.2731 19.7699C34.2195 19.7121 34.1541 19.6659 34.0812 19.6343C34.0083 19.6027 33.9295 19.5864 33.8498 19.5864H9.2744C9.19461 19.5867 9.1158 19.6034 9.04291 19.6353C8.97008 19.6672 8.90483 19.7137 8.85135 19.7718Z" fill="#7C4032"/>
<path d="M12.7807 23.9209C12.7132 23.9494 12.6595 24.0022 12.6306 24.0684C12.6016 24.1347 12.5997 24.2093 12.6252 24.2769C12.6506 24.3445 12.7016 24.3999 12.7675 24.4317C12.8334 24.4635 12.9092 24.4692 12.9794 24.4478C13.2205 24.3587 13.4287 24.2003 13.5765 23.9931C13.7244 23.786 13.805 23.5399 13.8078 23.2871C13.809 23.1233 13.7772 22.961 13.7144 22.8092C13.6517 22.6575 13.559 22.5194 13.4419 22.4028C13.3247 22.2862 13.1852 22.1934 13.0314 22.1296C12.8777 22.0659 12.7127 22.0325 12.5458 22.0314H12.5369C12.2014 22.0318 11.8796 22.1621 11.6415 22.394C11.4034 22.6258 11.2682 22.9406 11.2651 23.2697C11.265 23.3441 11.2947 23.4155 11.3479 23.4685C11.4011 23.5215 11.4736 23.5517 11.5494 23.5525C11.6249 23.5523 11.6972 23.5229 11.7507 23.4707C11.8042 23.4185 11.8346 23.3477 11.8352 23.2736C11.8369 23.0927 11.9113 22.9197 12.0422 22.7923C12.1732 22.6649 12.3501 22.5933 12.5344 22.5931H12.5393C12.7246 22.5944 12.9018 22.6677 13.032 22.7971C13.1622 22.9265 13.2348 23.1013 13.2337 23.2832C13.2322 23.4218 13.1882 23.5568 13.1075 23.6706C13.0267 23.7843 12.9128 23.8716 12.7807 23.9209Z" fill="#7C4032"/>
<path d="M9.4226 18.1193C9.38452 18.2634 9.40639 18.4164 9.48329 18.5448C9.56019 18.6732 9.68588 18.7663 9.83278 18.8037C9.88004 18.8156 9.92853 18.8217 9.97733 18.822C10.1039 18.8218 10.2269 18.7804 10.327 18.7042C10.4271 18.6281 10.4986 18.5216 10.5304 18.4013C10.6452 17.9695 10.8576 17.5685 11.1519 17.2282C11.4462 16.8879 11.8148 16.6169 12.2303 16.4354C12.6459 16.2539 13.0977 16.1666 13.5524 16.1798C14.007 16.193 14.4528 16.3065 14.8567 16.5118C14.9549 16.5687 15.0682 16.5955 15.182 16.5887C15.2959 16.5819 15.4051 16.5419 15.4955 16.4737C15.5861 16.4056 15.6537 16.3124 15.6898 16.2062C15.7259 16.1001 15.7287 15.9857 15.6981 15.878C15.6299 15.5961 15.6277 15.3028 15.6915 15.02C15.7554 14.7372 15.8839 14.4723 16.0671 14.2451C16.2503 14.018 16.4836 13.8346 16.7494 13.7086C17.0153 13.5826 17.3068 13.5174 17.602 13.5178C17.9082 13.5165 18.2103 13.5866 18.4835 13.7222C18.7566 13.8579 18.9931 14.0553 19.1733 14.2982C19.2383 14.3829 19.3264 14.4478 19.4275 14.4854C19.5285 14.5231 19.6383 14.5318 19.7442 14.5108C19.8501 14.4897 19.9478 14.4397 20.0259 14.3665C20.1041 14.2932 20.1595 14.1998 20.1858 14.097C20.2541 13.8157 20.3959 13.5566 20.5972 13.3455C20.7985 13.1343 21.0525 12.9783 21.334 12.8929C21.6156 12.8074 21.915 12.7954 22.2027 12.858C22.4904 12.9206 22.7565 13.0557 22.9748 13.25C23.0387 13.3067 23.1148 13.3485 23.1975 13.3722C23.2802 13.396 23.3673 13.4011 23.4523 13.3873C23.5373 13.3734 23.618 13.3409 23.6884 13.2922C23.7588 13.2435 23.8171 13.1798 23.8589 13.1059C24.2783 12.3671 24.9751 11.8182 25.8008 11.5761C26.6266 11.334 27.5161 11.4178 28.2798 11.8096C29.0435 12.2015 29.6211 12.8705 29.8895 13.6741C30.158 14.4776 30.0961 15.3522 29.7169 16.1117C29.674 16.1974 29.654 16.2924 29.6588 16.3877C29.6637 16.4831 29.6933 16.5757 29.7448 16.6568C29.7962 16.7378 29.8679 16.8047 29.953 16.8509C30.0382 16.8973 30.1339 16.9215 30.2312 16.9214C30.2803 16.9213 30.3292 16.9149 30.3766 16.9024C30.5388 16.8609 30.7056 16.8399 30.8732 16.8398C31.3234 16.8404 31.7597 16.9935 32.1082 17.2732C32.4568 17.553 32.6962 17.9422 32.786 18.3751C32.816 18.5211 32.9038 18.6494 33.0302 18.7317C33.1566 18.8141 33.3111 18.8439 33.4599 18.8145C33.6085 18.785 33.7393 18.6988 33.8233 18.5749C33.9072 18.4509 33.9376 18.2992 33.9076 18.1533C33.7716 17.4996 33.4206 16.9079 32.9083 16.4691C32.3961 16.0304 31.7511 15.7689 31.0726 15.7251C31.3194 14.749 31.2154 13.7191 30.7779 12.8096C30.3404 11.9001 29.5963 11.1666 28.6715 10.7331C27.7466 10.2996 26.6975 10.1925 25.7015 10.4301C24.7056 10.6677 23.8236 11.2353 23.2049 12.0371C22.5709 11.6962 21.8285 11.6047 21.1284 11.7813C20.4282 11.9578 19.8227 12.3892 19.4349 12.9878C18.9915 12.665 18.468 12.4646 17.9189 12.4074C17.3698 12.3502 16.8152 12.4382 16.3125 12.6624C15.8099 12.8866 15.3776 13.2388 15.0605 13.6824C14.7434 14.1259 14.5532 14.6447 14.5095 15.1847C14.1666 15.0979 13.8139 15.0537 13.4598 15.0532C12.5359 15.0535 11.6381 15.3547 10.9074 15.9096C10.1768 16.4645 9.65452 17.2417 9.4226 18.1193Z" fill="#7C4032"/>
<path d="M13.8998 12.979C13.8998 12.6779 13.8087 12.3835 13.6382 12.133C13.4676 11.8826 13.2253 11.6875 12.9417 11.5722C12.6581 11.457 12.3461 11.4268 12.045 11.4856C11.744 11.5443 11.4675 11.6893 11.2504 11.9023C11.0334 12.1152 10.8856 12.3866 10.8257 12.6819C10.7658 12.9773 10.7966 13.2835 10.914 13.5617C11.0315 13.84 11.2304 14.0778 11.4856 14.2451C11.7408 14.4125 12.0409 14.5017 12.3478 14.5017C12.552 14.503 12.7544 14.4645 12.9432 14.3884C13.1321 14.3123 13.3037 14.2002 13.448 14.0586C13.5924 13.9169 13.7067 13.7486 13.7842 13.5632C13.8617 13.3779 13.901 13.1793 13.8998 12.979ZM11.3692 12.979C11.3689 12.7889 11.426 12.6029 11.5335 12.4446C11.641 12.2863 11.7939 12.1629 11.9729 12.09C12.1519 12.017 12.3489 11.9978 12.539 12.0347C12.7291 12.0717 12.9038 12.1632 13.0409 12.2976C13.178 12.432 13.2714 12.6033 13.3092 12.7898C13.3471 12.9764 13.3276 13.1697 13.2534 13.3454C13.1792 13.5211 13.0536 13.6712 12.8923 13.7768C12.7311 13.8823 12.5416 13.9386 12.3478 13.9384C12.0886 13.9378 11.8402 13.8366 11.6568 13.6568C11.4734 13.477 11.37 13.2333 11.3692 12.979Z" fill="#7C4032"/>
<path d="M20.7324 7.8761C20.4255 7.87646 20.1256 7.96604 19.8706 8.13355C19.6156 8.30113 19.4169 8.53909 19.2997 8.81737C19.1825 9.09572 19.1521 9.40187 19.2122 9.69718C19.2724 9.99249 19.4204 10.2636 19.6376 10.4764C19.8547 10.6891 20.1313 10.834 20.4323 10.8925C20.7334 10.951 21.0454 10.9207 21.3289 10.8052C21.6123 10.6899 21.8546 10.4946 22.0249 10.2441C22.1952 9.99358 22.2861 9.69918 22.2859 9.39806C22.2853 8.99422 22.1214 8.6071 21.8301 8.32172C21.5388 8.03641 21.144 7.8761 20.7324 7.8761ZM20.7324 10.3591C20.5387 10.3591 20.3493 10.3027 20.1883 10.1971C20.0272 10.0915 19.9017 9.94143 19.8275 9.7658C19.7534 9.59022 19.734 9.39697 19.7718 9.21055C19.8096 9.02414 19.9029 8.85293 20.0398 8.71854C20.1768 8.58408 20.3514 8.49257 20.5413 8.45551C20.7314 8.41844 20.9283 8.43746 21.1072 8.5102C21.2862 8.58293 21.4391 8.70612 21.5468 8.86413C21.6544 9.0222 21.7119 9.20801 21.7119 9.39806C21.7126 9.52445 21.6878 9.64976 21.6388 9.76671C21.5899 9.88359 21.5178 9.98982 21.4266 10.0792C21.3356 10.1686 21.2273 10.2393 21.1081 10.2874C20.989 10.3355 20.8612 10.3598 20.7324 10.3591Z" fill="#7C4032"/>
<path d="M15.0187 12.0576C15.2593 12.0568 15.4897 11.9624 15.6596 11.7952C15.8293 11.628 15.9247 11.4016 15.9247 11.1655C15.9245 10.9892 15.871 10.8169 15.771 10.6703C15.671 10.5238 15.5289 10.4097 15.3628 10.3424C15.1966 10.2752 15.0139 10.2577 14.8377 10.2924C14.6615 10.3271 14.4997 10.4123 14.3728 10.5372C14.246 10.6621 14.1598 10.8212 14.125 10.9942C14.0903 11.1672 14.1087 11.3465 14.1779 11.5092C14.247 11.672 14.3638 11.811 14.5135 11.9086C14.6632 12.0062 14.839 12.0581 15.0187 12.0576ZM14.6804 11.1655C14.6804 11.0781 14.7158 10.9943 14.7788 10.9325C14.8418 10.8707 14.9272 10.8359 15.0163 10.8359C15.1052 10.8362 15.1903 10.8708 15.2533 10.9324C15.3162 10.994 15.3518 11.0775 15.3522 11.1647C15.352 11.252 15.3165 11.3356 15.2535 11.3973C15.1905 11.4589 15.1053 11.4935 15.0163 11.4935C14.9722 11.4936 14.9285 11.4852 14.8878 11.4687C14.8471 11.4522 14.81 11.4281 14.7788 11.3975C14.7476 11.3669 14.7229 11.3307 14.706 11.2908C14.6891 11.2508 14.6804 11.208 14.6804 11.1647V11.1655Z" fill="#7C4032"/>
<path d="M22.9862 7.30646C23.1057 7.30627 23.224 7.28296 23.3342 7.2379C23.4445 7.19284 23.5447 7.12689 23.629 7.04379C23.7132 6.9607 23.78 6.86216 23.8255 6.75375C23.8709 6.64535 23.8941 6.52925 23.8938 6.412C23.8932 6.17634 23.7972 5.95052 23.627 5.78416C23.4569 5.6178 23.2264 5.52448 22.9862 5.52469C22.8647 5.52113 22.7437 5.54155 22.6304 5.58472C22.5171 5.62789 22.4137 5.69294 22.3265 5.77602C22.2393 5.8591 22.1699 5.95852 22.1226 6.06836C22.0752 6.17822 22.0508 6.29632 22.0508 6.41557C22.0508 6.53488 22.0752 6.65292 22.1226 6.76278C22.1699 6.87264 22.2393 6.97209 22.3265 7.05512C22.4137 7.13821 22.5171 7.20326 22.6304 7.24644C22.7437 7.28962 22.8647 7.31003 22.9862 7.30646ZM22.9862 6.08562C23.0747 6.0858 23.1595 6.12014 23.2224 6.18125C23.2853 6.2423 23.3211 6.32521 23.3221 6.412C23.3221 6.49945 23.2867 6.58327 23.2238 6.64504C23.1607 6.70688 23.0753 6.74158 22.9862 6.74158C22.8972 6.7414 22.8119 6.70658 22.749 6.64486C22.686 6.58309 22.6506 6.49939 22.6504 6.412C22.6514 6.32521 22.6872 6.2423 22.7501 6.18125C22.8129 6.12014 22.8978 6.0858 22.9862 6.08562Z" fill="#7C4032"/>
<path d="M24.7969 9.1271C24.9258 9.12692 25.0507 9.08283 25.1503 9.00234C25.2498 8.92185 25.3177 8.80999 25.3426 8.68584C25.3675 8.56168 25.3476 8.43293 25.2866 8.32149C25.2254 8.21005 25.1268 8.1229 25.0076 8.07482C24.8883 8.02673 24.7557 8.02073 24.6324 8.05792C24.5091 8.09504 24.4028 8.17299 24.3315 8.27843C24.2603 8.38393 24.2285 8.51033 24.2417 8.63624C24.2549 8.76209 24.3121 8.87958 24.4037 8.96867C24.5082 9.07042 24.6496 9.12741 24.7969 9.1271ZM24.7807 8.58125C24.7807 8.57707 24.7824 8.57301 24.7854 8.57004C24.7885 8.56707 24.7926 8.56544 24.7969 8.56544C24.8011 8.56562 24.8051 8.56732 24.8082 8.57016C24.8108 8.57337 24.8125 8.57719 24.813 8.58125C24.813 8.59869 24.7807 8.59869 24.7807 8.58125Z" fill="#7C4032"/>
<path d="M31.5459 10.7441C31.5459 10.5995 31.4874 10.4609 31.3832 10.3587C31.279 10.2564 31.1377 10.199 30.9904 10.199C30.8803 10.199 30.7727 10.231 30.6812 10.291C30.5897 10.351 30.5184 10.4364 30.4764 10.5361C30.4343 10.6359 30.4233 10.7457 30.4448 10.8517C30.4663 10.9576 30.5194 11.0548 30.5973 11.1311C30.6752 11.2074 30.7744 11.2594 30.8823 11.2803C30.9903 11.3013 31.1022 11.2904 31.2039 11.249C31.3055 11.2075 31.3923 11.1374 31.4533 11.0475C31.5144 10.9577 31.5469 10.8521 31.5468 10.7441H31.5459ZM30.9734 10.7441C30.9734 10.742 30.9738 10.74 30.9747 10.7381C30.9755 10.7362 30.9767 10.7345 30.9782 10.7331C30.9797 10.7318 30.9815 10.7307 30.9835 10.7299C30.9854 10.7292 30.9875 10.7289 30.9896 10.729C30.9936 10.7293 30.9974 10.731 31.0003 10.7337C31.0033 10.7365 31.0052 10.7401 31.0058 10.7441C31.0058 10.7483 31.004 10.7523 31.001 10.7553C30.998 10.7583 30.9939 10.7599 30.9896 10.7599C30.9854 10.7595 30.9815 10.7578 30.9786 10.7549C30.9756 10.752 30.9738 10.7482 30.9734 10.7441Z" fill="#7C4032"/>
<path d="M33.4354 12.6416C33.4352 12.4054 33.3394 12.1789 33.1691 12.0119C32.9987 11.8449 32.7678 11.7511 32.527 11.7511C32.3473 11.7511 32.1717 11.8034 32.0223 11.9014C31.8728 11.9993 31.7565 12.1386 31.6877 12.3015C31.619 12.4644 31.6011 12.6437 31.6362 12.8166C31.6712 12.9895 31.7579 13.1483 31.885 13.2729C32.0121 13.3975 32.174 13.4824 32.3503 13.5166C32.5265 13.551 32.7092 13.5332 32.8752 13.4656C33.0412 13.3981 33.183 13.2837 33.2827 13.137C33.3824 12.9903 33.4356 12.8179 33.4354 12.6416ZM32.1911 12.6416C32.1913 12.5544 32.2268 12.4707 32.2898 12.4091C32.3528 12.3475 32.438 12.3128 32.527 12.3128C32.5935 12.3128 32.6585 12.3322 32.7137 12.3684C32.769 12.4047 32.812 12.4562 32.8374 12.5164C32.8628 12.5768 32.8694 12.643 32.8564 12.707C32.8434 12.7709 32.8113 12.8297 32.7642 12.8758C32.7172 12.9218 32.6573 12.9531 32.592 12.9658C32.5268 12.9784 32.4592 12.9718 32.3979 12.9467C32.3366 12.9216 32.2841 12.8792 32.2473 12.8249C32.2105 12.7706 32.191 12.7068 32.1911 12.6416Z" fill="#7C4032"/>
<path d="M36.8208 8.01542C34.5425 5.78193 31.7834 4.07737 28.746 3.02693C25.7085 1.97649 22.4699 1.60683 19.2679 1.94507C16.0658 2.28331 12.9816 3.32088 10.2416 4.9816C7.5017 6.64233 5.17559 8.88402 3.43407 11.5422C1.69255 14.2003 0.579849 17.2074 0.177644 20.3426C-0.224561 23.4779 0.0939437 26.6617 1.10978 29.6604C2.12561 32.659 3.81298 35.3964 6.04801 37.6716C8.28306 39.9467 11.009 41.7019 14.0257 42.8082C14.0899 42.8315 14.1577 42.8435 14.226 42.8438C14.3601 42.8437 14.4899 42.7975 14.5928 42.713C14.6956 42.6286 14.7651 42.5115 14.7889 42.382C14.8128 42.2525 14.7895 42.1189 14.7232 42.0045C14.6569 41.8902 14.5518 41.8022 14.4262 41.7561C6.48257 38.8469 1.14538 31.2983 1.14538 22.9796C1.14538 11.9308 10.3067 2.94182 21.5673 2.94182C32.8279 2.94182 41.9884 11.9292 41.9884 22.978C41.9912 26.2864 41.1581 29.5438 39.5634 32.4587C37.9687 35.3737 35.6623 37.8552 32.8505 39.6812C32.815 39.7041 32.7012 39.781 32.6745 39.7952C29.0749 41.7553 25.3478 42.4097 23.4002 41.4321C22.8309 41.146 22.449 40.7253 22.2577 40.1795H22.47C23.0499 40.1789 23.6059 39.9526 24.016 39.5502C24.4261 39.1478 24.6568 38.6023 24.6574 38.0332V37.935C24.8615 37.851 25.0358 37.7097 25.1585 37.5289C25.2812 37.3481 25.3467 37.1357 25.347 36.9186V34.5418C25.3498 34.4663 25.3372 34.391 25.3098 34.3205C25.2823 34.2498 25.2406 34.1855 25.1872 34.131C25.1338 34.0766 25.0698 34.0333 24.9989 34.0038C24.928 33.9742 24.8519 33.959 24.7749 33.959C24.6979 33.959 24.6217 33.9742 24.5508 34.0038C24.48 34.0333 24.416 34.0766 24.3625 34.131C24.3091 34.1855 24.2675 34.2498 24.24 34.3205C24.2126 34.391 24.1999 34.4663 24.2028 34.5418V36.8956H18.931V34.5434C18.9339 34.4679 18.9212 34.3926 18.8938 34.322C18.8663 34.2514 18.8247 34.187 18.7712 34.1326C18.7178 34.0782 18.6538 34.0349 18.5829 34.0054C18.5121 33.9758 18.4359 33.9606 18.3589 33.9606C18.2819 33.9606 18.2057 33.9758 18.1349 34.0054C18.064 34.0349 18 34.0782 17.9466 34.1326C17.8931 34.187 17.8515 34.2514 17.8241 34.322C17.7966 34.3926 17.784 34.4679 17.7869 34.5434V36.9201C17.787 37.1373 17.8526 37.3497 17.9753 37.5304C18.098 37.7113 18.2723 37.8526 18.4764 37.9366V38.0349C18.477 38.6039 18.7077 39.1494 19.1178 39.5517C19.5278 39.9541 20.0838 40.1805 20.6638 40.1811H21.0675C21.296 41.1753 21.9145 41.9494 22.8746 42.4327C23.636 42.8161 24.5871 43.0023 25.6643 43.0023C27.8533 43.0023 30.559 42.2314 33.2276 40.7785C33.2785 40.7507 33.4432 40.643 33.4812 40.62C36.1453 38.8878 38.3839 36.5963 40.035 33.9112C41.686 31.2262 42.7083 28.2146 43.0279 25.0945C43.3475 21.9743 42.9564 18.8234 41.8829 15.8696C40.8094 12.9159 39.0804 10.2332 36.8208 8.01542ZM19.6222 38.0332V38.0237H23.514V38.0372C23.5117 38.3075 23.4007 38.5659 23.2052 38.7562C23.0097 38.9466 22.7455 39.0535 22.47 39.0537H20.6638C20.388 39.0531 20.1236 38.9454 19.9285 38.7542C19.7334 38.563 19.6232 38.3038 19.6222 38.0332Z" fill="#7C4032"/>
<path d="M12.6938 23.0438C12.6621 23.0238 12.6268 23.0101 12.5898 23.0036C12.5528 22.9971 12.5148 22.9977 12.478 23.0056C12.4413 23.0135 12.4064 23.0284 12.3756 23.0495C12.3447 23.0706 12.3184 23.0975 12.2981 23.1286C10.9013 25.2613 9.28638 26.3618 7.23382 27.7554L6.84225 28.0216C6.7924 28.0557 6.75494 28.1045 6.73522 28.1609C6.71551 28.2173 6.71458 28.2784 6.73257 28.3353C6.7505 28.3923 6.78649 28.4421 6.83523 28.4777C6.88397 28.5134 6.94293 28.5328 7.00369 28.5334C7.06154 28.533 7.11792 28.5153 7.16518 28.4826L7.55601 28.2173C9.57462 26.8443 11.3187 25.6591 12.7761 23.432C12.8175 23.3698 12.832 23.294 12.8166 23.2213C12.8011 23.1485 12.757 23.0848 12.6938 23.0438Z" fill="#7C4032"/>
</g>
<defs>
<clipPath id="clip0_1_2307">
<rect width="244" height="43" fill="white"/>
</clipPath>
</defs>
</svg>
