<svg width="244" height="48" viewBox="0 0 244 48" fill="none" xmlns="http://www.w3.org/2000/svg">
<path d="M37.9925 11.5498C37.966 11.5371 37.9386 11.5263 37.9105 11.5176C36.614 11.0105 35.235 10.7509 33.8442 10.7522H32.6882C32.6118 10.7521 32.5362 10.7671 32.4657 10.7965C32.3951 10.8259 32.3309 10.869 32.277 10.9234C32.223 10.9778 32.1801 11.0424 32.151 11.1135C32.1218 11.1845 32.1068 11.2607 32.1069 11.3376V26.9335C32.1126 27.0849 32.1763 27.2281 32.2846 27.3331C32.3929 27.4382 32.5374 27.4969 32.6878 27.4969C32.8382 27.4969 32.9827 27.4382 33.091 27.3331C33.1993 27.2281 33.263 27.0849 33.2686 26.9335V11.9221H33.8425C34.9727 11.9215 36.0948 12.1124 37.162 12.4869V23.513C37.1625 23.9981 37.354 24.4633 37.6946 24.8065C38.0352 25.1496 38.497 25.3427 38.9788 25.3434H43.9428V27.8202H39.706C39.6278 27.8173 39.55 27.8302 39.4769 27.8583C39.4039 27.8863 39.3372 27.9289 39.2809 27.9835C39.2246 28.0382 39.1798 28.1037 39.1492 28.1761C39.1186 28.2485 39.1029 28.3265 39.1029 28.4052C39.1029 28.4839 39.1186 28.5618 39.1492 28.6343C39.1798 28.7067 39.2246 28.7722 39.2809 28.8268C39.3372 28.8814 39.4039 28.924 39.4769 28.9521C39.55 28.9801 39.6278 28.9931 39.706 28.9901H43.9428V31.4018H37.9179C37.8398 31.3988 37.7619 31.4118 37.6889 31.4398C37.6158 31.4679 37.5492 31.5105 37.4929 31.5651C37.4366 31.6197 37.3918 31.6852 37.3612 31.7577C37.3306 31.8301 37.3148 31.908 37.3148 31.9867C37.3148 32.0655 37.3306 32.1433 37.3612 32.2158C37.3918 32.2882 37.4366 32.3537 37.4929 32.4083C37.5492 32.4629 37.6158 32.5056 37.6889 32.5336C37.7619 32.5617 37.8398 32.5746 37.9179 32.5717H44.5241C44.678 32.5717 44.8257 32.5101 44.9345 32.4005C45.0434 32.2908 45.1045 32.1421 45.1045 31.9871V22.0937C45.1021 19.8215 44.4231 17.6022 43.1553 15.7226C41.8875 13.843 40.0891 12.3894 37.9925 11.5498ZM38.9763 24.1727C38.8024 24.1727 38.6355 24.1031 38.5126 23.9792C38.3895 23.8553 38.3205 23.6873 38.3205 23.5121V12.9805C40.0071 13.822 41.427 15.1208 42.4203 16.7308C43.4136 18.3409 43.9409 20.1982 43.9428 22.0937V24.1727H38.9763Z" fill="#7C4032"/>
<path d="M5.92165 27.8912C4.75046 27.8912 3.60556 28.241 2.63175 28.8962C1.65795 29.5515 0.898958 30.4829 0.450761 31.5726C0.00256559 32.6622 -0.114702 33.8613 0.113785 35.0181C0.342273 36.1749 0.906256 37.2375 1.73441 38.0715C2.56257 38.9055 3.6177 39.4734 4.76639 39.7035C5.91507 39.9336 7.10573 39.8155 8.18775 39.3642C9.26983 38.9128 10.1946 38.1485 10.8453 37.1678C11.496 36.1871 11.8433 35.0341 11.8433 33.8547C11.8416 32.2736 11.2171 30.7578 10.107 29.6398C8.99681 28.5218 7.49162 27.893 5.92165 27.8912ZM5.92165 38.6482C4.98022 38.6482 4.05993 38.3671 3.27716 37.8404C2.4944 37.3136 1.8843 36.565 1.52403 35.6891C1.16377 34.8132 1.0695 33.8493 1.25317 32.9195C1.43683 31.9896 1.89017 31.1355 2.55586 30.4651C3.22155 29.7947 4.06969 29.3382 4.99303 29.1533C5.91638 28.9683 6.87341 29.0632 7.74322 29.426C8.61298 29.7888 9.35634 30.4032 9.87939 31.1915C10.4024 31.9798 10.6816 32.9066 10.6816 33.8547C10.6803 35.1256 10.1784 36.3441 9.28602 37.2428C8.3936 38.1415 7.18365 38.6469 5.92165 38.6482Z" fill="#7C4032"/>
<path d="M5.92153 32.2736C5.61101 32.2736 5.30749 32.3663 5.04931 32.54C4.79113 32.7137 4.5899 32.9607 4.47107 33.2496C4.35224 33.5385 4.32115 33.8564 4.38173 34.1631C4.44231 34.4698 4.59183 34.7515 4.8114 34.9726C5.03096 35.1937 5.31071 35.3443 5.61525 35.4053C5.91979 35.4663 6.23547 35.435 6.52234 35.3153C6.80922 35.1957 7.05441 34.993 7.22695 34.733C7.39944 34.473 7.49149 34.1673 7.49149 33.8546C7.49106 33.4354 7.32553 33.0335 7.03121 32.7371C6.73689 32.4407 6.33779 32.274 5.92153 32.2736ZM5.92153 34.2658C5.84045 34.2658 5.76121 34.2416 5.69383 34.1962C5.62639 34.1509 5.57384 34.0864 5.54281 34.0109C5.51178 33.9355 5.50368 33.8525 5.5195 33.7725C5.53531 33.6924 5.57438 33.6188 5.63171 33.5611C5.68899 33.5033 5.76203 33.464 5.84159 33.4481C5.92109 33.4322 6.00353 33.4403 6.07841 33.4716C6.1533 33.5029 6.21731 33.5558 6.26236 33.6236C6.30742 33.6915 6.33143 33.7713 6.33143 33.853C6.33143 33.9625 6.28829 34.0675 6.21139 34.1449C6.1345 34.2223 6.03027 34.2658 5.92153 34.2658Z" fill="#7C4032"/>
<path d="M31.154 27.8912C29.9829 27.8912 28.838 28.241 27.8642 28.8962C26.8903 29.5515 26.1314 30.4829 25.6832 31.5726C25.235 32.6622 25.1177 33.8613 25.3462 35.0181C25.5747 36.1749 26.1387 37.2375 26.9668 38.0715C27.795 38.9055 28.8501 39.4734 29.9988 39.7035C31.1475 39.9336 32.3381 39.8155 33.4202 39.3642C34.5022 38.9128 35.427 38.1485 36.0777 37.1678C36.7284 36.1871 37.0757 35.0341 37.0757 33.8547C37.0739 32.2736 36.4495 30.7578 35.3394 29.6398C34.2293 28.5218 32.7241 27.893 31.154 27.8912ZM31.154 38.6482C30.2124 38.6492 29.2917 38.3689 28.5082 37.8428C27.7248 37.3166 27.114 36.5683 26.753 35.6925C26.3919 34.8167 26.297 33.8527 26.4801 32.9226C26.6632 31.9923 27.1161 31.1378 27.7816 30.4669C28.4471 29.796 29.2952 29.339 30.2187 29.1536C31.1422 28.9682 32.0995 29.0629 32.9696 29.4255C33.8396 29.7882 34.5833 30.4026 35.1066 31.191C35.6298 31.9794 35.9091 32.9064 35.9091 33.8547C35.9078 35.1247 35.4065 36.3425 34.5153 37.241C33.6239 38.1396 32.4152 38.6456 31.154 38.6482Z" fill="#7C4032"/>
<path d="M31.154 32.2736C30.8435 32.2736 30.5399 32.3663 30.2817 32.54C30.0235 32.7137 29.8223 32.9607 29.7035 33.2496C29.5847 33.5385 29.5536 33.8564 29.6142 34.1631C29.6747 34.4698 29.8243 34.7515 30.0438 34.9726C30.2634 35.1937 30.5431 35.3443 30.8476 35.4053C31.1522 35.4663 31.4679 35.435 31.7547 35.3153C32.0416 35.1957 32.2868 34.993 32.4593 34.733C32.6318 34.473 32.7239 34.1673 32.7239 33.8546C32.7235 33.4354 32.5579 33.0335 32.2636 32.7371C31.9693 32.4407 31.5702 32.274 31.154 32.2736ZM31.154 34.2658C31.0729 34.2658 30.9936 34.2416 30.9262 34.1962C30.8588 34.1509 30.8063 34.0864 30.7753 34.0109C30.7442 33.9355 30.7361 33.8525 30.7519 33.7725C30.7678 33.6924 30.8068 33.6188 30.8641 33.5611C30.9214 33.5033 30.9945 33.464 31.074 33.4481C31.1535 33.4322 31.2359 33.4403 31.3108 33.4716C31.3857 33.5029 31.4498 33.5558 31.4948 33.6236C31.5398 33.6915 31.5639 33.7713 31.5639 33.853C31.5639 33.9625 31.5207 34.0675 31.4438 34.1449C31.3669 34.2223 31.2627 34.2658 31.154 34.2658Z" fill="#7C4032"/>
<path d="M24.316 31.4051H12.69C12.6119 31.4021 12.534 31.4151 12.461 31.4431C12.3879 31.4712 12.3212 31.5138 12.2649 31.5684C12.2086 31.623 12.1639 31.6885 12.1333 31.7609C12.1027 31.8334 12.0869 31.9113 12.0869 31.99C12.0869 32.0687 12.1027 32.1467 12.1333 32.2191C12.1639 32.2916 12.2086 32.3571 12.2649 32.4117C12.3212 32.4663 12.3879 32.5089 12.461 32.537C12.534 32.565 12.6119 32.5779 12.69 32.575H24.316C24.3941 32.5779 24.4721 32.565 24.5451 32.537C24.6181 32.5089 24.6848 32.4663 24.7411 32.4117C24.7974 32.3571 24.8422 32.2916 24.8728 32.2191C24.9033 32.1467 24.9191 32.0687 24.9191 31.99C24.9191 31.9113 24.9033 31.8334 24.8728 31.7609C24.8422 31.6885 24.7974 31.623 24.7411 31.5684C24.6848 31.5138 24.6181 31.4712 24.5451 31.4431C24.4721 31.4151 24.3941 31.4021 24.316 31.4051Z" fill="#7C4032"/>
<path d="M4.80198 14.2652H4.99218L6.80481 27.0524C6.8103 27.1327 6.8322 27.2109 6.8691 27.2823C6.90595 27.3537 6.95708 27.4167 7.0192 27.4673C7.08131 27.5179 7.15315 27.5551 7.23021 27.5765C7.30721 27.5978 7.38781 27.603 7.46693 27.5916C7.546 27.5803 7.62197 27.5526 7.68995 27.5103C7.75794 27.4681 7.81657 27.4121 7.86217 27.346C7.90776 27.2799 7.93928 27.2051 7.95487 27.1261C7.97042 27.0472 7.96966 26.9659 7.95259 26.8873L6.16618 14.2652H28.9501L27.0088 27.8276C26.9917 27.9063 26.9909 27.9876 27.0065 28.0665C27.0221 28.1455 27.0536 28.2203 27.0992 28.2864C27.1448 28.3525 27.2034 28.4084 27.2714 28.4507C27.3394 28.4929 27.4153 28.5206 27.4944 28.532C27.5736 28.5434 27.6542 28.5382 27.7312 28.5168C27.8082 28.4954 27.88 28.4583 27.9422 28.4077C28.0043 28.3571 28.0554 28.2941 28.0923 28.2227C28.1292 28.1514 28.151 28.073 28.1566 27.9928L30.1241 14.2635H30.3152C30.4692 14.2633 30.6168 14.2016 30.7256 14.0918C30.8345 13.982 30.8956 13.8333 30.8956 13.6782V12.8633C30.8949 12.1717 30.6219 11.5086 30.1364 11.0195C29.6508 10.5304 28.9925 10.2552 28.3057 10.2543H20.8452C20.6699 9.50877 20.2498 8.84462 19.6531 8.36942C19.0563 7.89417 18.3178 7.63562 17.5569 7.63562C16.7961 7.63562 16.0575 7.89417 15.4608 8.36942C14.864 8.84462 14.444 9.50877 14.2686 10.2543H6.80813C6.12134 10.2552 5.46303 10.5304 4.97748 11.0195C4.49195 11.5086 4.21891 12.1717 4.21826 12.8633V13.6799C4.21815 13.7567 4.23309 13.8327 4.26221 13.9038C4.29133 13.9748 4.33407 14.0394 4.38798 14.0937C4.44189 14.1481 4.50591 14.1912 4.57639 14.2206C4.64687 14.2501 4.72241 14.2652 4.79871 14.2652H4.80198ZM17.5586 8.80622C18.0096 8.80737 18.4497 8.94646 18.8205 9.20506C19.1913 9.46366 19.4754 9.82955 19.6352 10.2543H15.4819C15.6417 9.82955 15.9258 9.46366 16.2966 9.20506C16.6675 8.94646 17.1075 8.80737 17.5586 8.80622ZM5.38325 12.8633C5.38367 12.482 5.53428 12.1164 5.80202 11.8468C6.06977 11.5772 6.43273 11.4255 6.81139 11.4251H28.3057C28.6844 11.4257 29.0474 11.5776 29.3151 11.8473C29.5829 12.1171 29.7334 12.4827 29.7339 12.8641V13.0953H5.38488L5.38325 12.8633Z" fill="#7C4032"/>
<path d="M16.6205 26.6669C16.7747 26.6669 16.9226 26.6052 17.0315 26.4954C17.1405 26.3857 17.2018 26.2367 17.2018 26.0815C17.2018 25.9263 17.1405 25.7774 17.0315 25.6676C16.9226 25.5578 16.7747 25.4961 16.6205 25.4961H13.3855L14.2873 23.9159L14.4677 24.5723C14.5015 24.6957 14.5746 24.8044 14.6757 24.882C14.7769 24.9595 14.9005 25.0015 15.0276 25.0016C15.0802 25.0017 15.1327 24.9945 15.1834 24.9801C15.2568 24.9596 15.3256 24.9247 15.3857 24.8774C15.4458 24.8301 15.4961 24.7714 15.5336 24.7045C15.5712 24.6376 15.5952 24.564 15.6045 24.4877C15.6137 24.4115 15.608 24.3342 15.5875 24.2602L15.0448 22.2861C15.0282 22.2061 14.995 22.1304 14.9472 22.0642C14.8994 21.998 14.8382 21.9428 14.7677 21.9022C14.687 21.8559 14.5965 21.8296 14.5037 21.8254H14.4717C14.4211 21.8255 14.3707 21.8322 14.3217 21.8452L12.3287 22.4009C12.1934 22.4389 12.0764 22.5248 11.9991 22.643C11.9219 22.7611 11.8898 22.9034 11.9087 23.0435C11.9276 23.1837 11.9962 23.3122 12.1019 23.4053C12.2076 23.4985 12.3432 23.5499 12.4837 23.5502C12.536 23.5503 12.5882 23.5431 12.6386 23.5287L13.2682 23.3536L11.8745 25.7893C11.8237 25.8783 11.7971 25.9793 11.7974 26.082C11.7976 26.1847 11.8246 26.2855 11.8758 26.3744C11.927 26.4632 12.0005 26.537 12.0889 26.5881C12.1773 26.6393 12.2775 26.6662 12.3795 26.666L16.6205 26.6669Z" fill="#7C4032"/>
<path d="M22.9003 26.6685C23.0021 26.6684 23.1022 26.6413 23.1904 26.59C23.2786 26.5387 23.3518 26.4649 23.4028 26.3761C23.4538 26.2873 23.4807 26.1866 23.4809 26.084C23.481 25.9814 23.4544 25.8806 23.4037 25.7917L21.2893 22.0904C21.2513 22.0238 21.2007 21.9655 21.1402 21.9186C21.0799 21.8717 21.0109 21.8373 20.9373 21.8173C20.8636 21.7973 20.7868 21.7921 20.7112 21.802C20.6356 21.8119 20.5626 21.8367 20.4966 21.8749C20.4305 21.9132 20.3725 21.9642 20.326 22.0251C20.2794 22.0859 20.2453 22.1553 20.2254 22.2295C20.2055 22.3036 20.2003 22.381 20.2102 22.4571C20.2199 22.5333 20.2446 22.6067 20.2826 22.6733L21.8952 25.4978H20.0858L20.5613 25.0123C20.6151 24.9576 20.6577 24.8927 20.6867 24.8215C20.7157 24.7502 20.7304 24.6739 20.73 24.5968C20.7297 24.5198 20.7143 24.4436 20.6847 24.3727C20.6551 24.3016 20.6119 24.2372 20.5576 24.1829C20.5033 24.1287 20.4389 24.0859 20.3681 24.0567C20.2974 24.0275 20.2216 24.0127 20.1451 24.013C20.0687 24.0134 19.993 24.0289 19.9225 24.0587C19.8519 24.0885 19.7879 24.1319 19.7341 24.1867L18.306 25.6439C18.2453 25.6985 18.1969 25.7655 18.1637 25.8403C18.1305 25.9151 18.1133 25.9962 18.1133 26.0782C18.1131 26.1704 18.135 26.2613 18.1772 26.3432C18.1788 26.3477 18.1807 26.3522 18.183 26.3564L18.1912 26.3688C18.2169 26.4156 18.2492 26.4585 18.2871 26.4959L19.7579 27.9631C19.8676 28.0725 20.016 28.1336 20.1704 28.133C20.3248 28.1323 20.4727 28.0698 20.5814 27.9593C20.6901 27.8488 20.7508 27.6994 20.7501 27.5439C20.7494 27.3884 20.6874 27.2395 20.5777 27.13L20.1129 26.6677L22.9003 26.6685Z" fill="#7C4032"/>
<path d="M17.1761 19.9042C17.1374 20.0544 17.1596 20.2139 17.2377 20.3477C17.3158 20.4815 17.4434 20.5785 17.5926 20.6176L19.5601 21.1311C19.6375 21.1571 19.7195 21.1662 19.8007 21.1578C19.8818 21.1494 19.9602 21.1237 20.0308 21.0824C20.1058 21.0385 20.1701 20.9785 20.2193 20.9065C20.221 20.9027 20.2232 20.8991 20.2259 20.8958C20.2414 20.8724 20.2551 20.8479 20.2668 20.8223L20.2742 20.805C20.2852 20.7796 20.2942 20.7533 20.3013 20.7265C20.3013 20.7265 20.3013 20.7265 20.3013 20.7216L20.8227 18.7054C20.8443 18.6303 20.8508 18.5515 20.8417 18.4738C20.8325 18.396 20.808 18.3209 20.7696 18.2529C20.7311 18.1849 20.6796 18.1253 20.6179 18.0778C20.5561 18.0301 20.4856 17.9955 20.4104 17.9759C20.3352 17.9562 20.2568 17.9519 20.1799 17.9633C20.103 17.9747 20.0292 18.0015 19.9628 18.0421C19.8963 18.0827 19.8387 18.1363 19.7932 18.1998C19.7477 18.2632 19.7152 18.3352 19.6979 18.4115L19.5339 19.0489L18.1361 16.6158C18.0852 16.527 18.0119 16.4533 17.9237 16.4021C17.8355 16.3509 17.7354 16.3241 17.6335 16.3243C17.5316 16.3244 17.4314 16.3514 17.3431 16.4027C17.2547 16.454 17.1813 16.5277 17.1301 16.6166L15.0084 20.3129C14.9681 20.3795 14.9414 20.4535 14.9298 20.5307C14.9183 20.6079 14.9222 20.6866 14.9413 20.7622C14.9604 20.8378 14.9943 20.9088 15.0411 20.971C15.0878 21.0332 15.1464 21.0854 15.2135 21.1245C15.2805 21.1636 15.3547 21.1887 15.4315 21.1985C15.5084 21.2083 15.5864 21.2026 15.661 21.1816C15.7357 21.1606 15.8054 21.1248 15.866 21.0762C15.9267 21.0277 15.9772 20.9675 16.0144 20.8991L17.6335 18.0779L18.5403 19.6557L17.8844 19.4848C17.7353 19.4459 17.5768 19.4682 17.444 19.5468C17.3112 19.6255 17.2148 19.7541 17.1761 19.9042Z" fill="#7C4032"/>
<path d="M70.7108 31.0909L65.07 21.5345H60.8639V31.0909H58.5815V8.2145H65.4287C67.9719 8.2145 69.8957 8.82541 71.1999 10.0472C72.5259 11.269 73.1888 12.8727 73.1888 14.8581C73.1888 16.5163 72.7106 17.9345 71.7542 19.1127C70.8195 20.269 69.4283 21.0218 67.5806 21.3709L73.4497 31.0909H70.7108ZM60.8639 19.669H65.4613C67.2437 19.669 68.5806 19.2327 69.4718 18.36C70.3847 17.4872 70.8412 16.32 70.8412 14.8581C70.8412 13.3527 70.4065 12.1963 69.537 11.389C68.6675 10.56 67.2981 10.1454 65.4287 10.1454H60.8639V19.669ZM85.5111 31.3527C83.8373 31.3527 82.3266 30.9818 80.9789 30.24C79.6529 29.4763 78.5987 28.4072 77.8162 27.0327C77.0554 25.6363 76.6749 24.0109 76.6749 22.1563C76.6749 20.3018 77.0662 18.6872 77.8488 17.3127C78.6313 15.9163 79.6964 14.8472 81.0441 14.1054C82.3918 13.3418 83.9026 12.96 85.5763 12.96C87.2501 12.96 88.7608 13.3418 90.1085 14.1054C91.478 14.8472 92.5431 15.9163 93.3039 17.3127C94.0864 18.6872 94.4777 20.3018 94.4777 22.1563C94.4777 23.989 94.0864 25.6036 93.3039 27C92.5214 28.3963 91.4454 29.4763 90.0759 30.24C88.7065 30.9818 87.1849 31.3527 85.5111 31.3527ZM85.5111 29.3563C86.6849 29.3563 87.7718 29.0945 88.7717 28.5709C89.7716 28.0254 90.5759 27.2181 91.1845 26.149C91.8149 25.0581 92.1301 23.7272 92.1301 22.1563C92.1301 20.5854 91.8258 19.2654 91.2171 18.1963C90.6085 17.1054 89.8042 16.2981 88.8043 15.7745C87.8044 15.229 86.7175 14.9563 85.5437 14.9563C84.3699 14.9563 83.2831 15.229 82.2831 15.7745C81.2832 16.2981 80.479 17.1054 79.8703 18.1963C79.2834 19.2654 78.99 20.5854 78.99 22.1563C78.99 23.7272 79.2834 25.0581 79.8703 26.149C80.479 27.2181 81.2724 28.0254 82.2505 28.5709C83.2504 29.0945 84.3373 29.3563 85.5111 29.3563ZM114.061 13.2218V31.0909H111.778V27.949C111.257 29.0618 110.452 29.9127 109.366 30.5018C108.279 31.0909 107.061 31.3854 105.714 31.3854C103.583 31.3854 101.844 30.7309 100.497 29.4218C99.149 28.0909 98.4752 26.1709 98.4752 23.6618V13.2218H100.725V23.4C100.725 25.3418 101.203 26.8254 102.16 27.8509C103.138 28.8763 104.464 29.389 106.138 29.389C107.855 29.389 109.224 28.8436 110.246 27.7527C111.268 26.6618 111.778 25.0581 111.778 22.9418V13.2218H114.061ZM127.619 12.8945C129.749 12.8945 131.488 13.56 132.836 14.8909C134.183 16.2 134.857 18.109 134.857 20.6181V31.0909H132.607V20.88C132.607 18.9381 132.118 17.4545 131.14 16.429C130.184 15.4036 128.869 14.8909 127.195 14.8909C125.478 14.8909 124.108 15.4363 123.087 16.5272C122.065 17.6181 121.554 19.2218 121.554 21.3381V31.0909H119.272V13.2218H121.554V16.2654C122.119 15.1745 122.934 14.3454 124 13.7781C125.065 13.189 126.271 12.8945 127.619 12.8945ZM138.861 22.1236C138.861 20.2909 139.231 18.6872 139.97 17.3127C140.709 15.9163 141.72 14.8472 143.002 14.1054C144.306 13.3418 145.774 12.96 147.404 12.96C148.969 12.96 150.382 13.3418 151.643 14.1054C152.903 14.869 153.827 15.8618 154.414 17.0836V6.87268H156.697V31.0909H154.414V27.0981C153.871 28.3418 152.98 29.3672 151.741 30.1745C150.502 30.96 149.045 31.3527 147.371 31.3527C145.741 31.3527 144.274 30.9709 142.97 30.2072C141.687 29.4436 140.676 28.3636 139.937 26.9672C139.22 25.5709 138.861 23.9563 138.861 22.1236ZM154.414 22.1563C154.414 20.7163 154.121 19.4509 153.534 18.36C152.947 17.269 152.143 16.429 151.121 15.84C150.121 15.2509 149.013 14.9563 147.795 14.9563C146.534 14.9563 145.404 15.24 144.404 15.8072C143.404 16.3745 142.611 17.2036 142.024 18.2945C141.459 19.3636 141.176 20.64 141.176 22.1236C141.176 23.5854 141.459 24.8727 142.024 25.9854C142.611 27.0763 143.404 27.9163 144.404 28.5054C145.404 29.0727 146.534 29.3563 147.795 29.3563C149.013 29.3563 150.121 29.0618 151.121 28.4727C152.143 27.8836 152.947 27.0436 153.534 25.9527C154.121 24.8618 154.414 23.5963 154.414 22.1563ZM182.984 31.0909L177.344 21.5345H173.138V31.0909H170.855V8.2145H177.702C180.246 8.2145 182.169 8.82541 183.474 10.0472C184.8 11.269 185.463 12.8727 185.463 14.8581C185.463 16.5163 184.984 17.9345 184.028 19.1127C183.093 20.269 181.702 21.0218 179.854 21.3709L185.723 31.0909H182.984ZM173.138 19.669H177.735C179.517 19.669 180.854 19.2327 181.745 18.36C182.658 17.4872 183.115 16.32 183.115 14.8581C183.115 13.3527 182.68 12.1963 181.811 11.389C180.941 10.56 179.572 10.1454 177.702 10.1454H173.138V19.669ZM197.784 31.3527C196.111 31.3527 194.6 30.9818 193.252 30.24C191.926 29.4763 190.872 28.4072 190.089 27.0327C189.328 25.6363 188.948 24.0109 188.948 22.1563C188.948 20.3018 189.339 18.6872 190.122 17.3127C190.904 15.9163 191.97 14.8472 193.317 14.1054C194.665 13.3418 196.176 12.96 197.849 12.96C199.523 12.96 201.034 13.3418 202.382 14.1054C203.751 14.8472 204.816 15.9163 205.577 17.3127C206.36 18.6872 206.751 20.3018 206.751 22.1563C206.751 23.989 206.36 25.6036 205.577 27C204.795 28.3963 203.719 29.4763 202.349 30.24C200.98 30.9818 199.458 31.3527 197.784 31.3527ZM197.784 29.3563C198.958 29.3563 200.045 29.0945 201.045 28.5709C202.045 28.0254 202.849 27.2181 203.458 26.149C204.088 25.0581 204.403 23.7272 204.403 22.1563C204.403 20.5854 204.099 19.2654 203.49 18.1963C202.882 17.1054 202.077 16.2981 201.077 15.7745C200.078 15.229 198.991 14.9563 197.817 14.9563C196.643 14.9563 195.556 15.229 194.556 15.7745C193.556 16.2981 192.752 17.1054 192.143 18.1963C191.557 19.2654 191.263 20.5854 191.263 22.1563C191.263 23.7272 191.557 25.0581 192.143 26.149C192.752 27.2181 193.546 28.0254 194.524 28.5709C195.524 29.0945 196.61 29.3563 197.784 29.3563ZM209.869 22.1563C209.869 20.3018 210.238 18.6872 210.977 17.3127C211.716 15.9163 212.738 14.8472 214.042 14.1054C215.346 13.3418 216.835 12.96 218.509 12.96C220.704 12.96 222.509 13.5054 223.922 14.5963C225.356 15.6872 226.28 17.1709 226.693 19.0472H224.248C223.943 17.76 223.28 16.7563 222.259 16.0363C221.259 15.2945 220.009 14.9236 218.509 14.9236C217.314 14.9236 216.238 15.1963 215.281 15.7418C214.325 16.2872 213.564 17.1054 212.999 18.1963C212.455 19.2654 212.184 20.5854 212.184 22.1563C212.184 23.7272 212.455 25.0581 212.999 26.149C213.564 27.24 214.325 28.0581 215.281 28.6036C216.238 29.149 217.314 29.4218 218.509 29.4218C220.009 29.4218 221.259 29.0618 222.259 28.3418C223.28 27.6 223.943 26.5745 224.248 25.2654H226.693C226.28 27.0981 225.356 28.5709 223.922 29.6836C222.487 30.7963 220.683 31.3527 218.509 31.3527C216.835 31.3527 215.346 30.9818 214.042 30.24C212.738 29.4763 211.716 28.4072 210.977 27.0327C210.238 25.6363 209.869 24.0109 209.869 22.1563ZM240.527 31.0909L233.19 23.0727V31.0909H230.908V6.87268H233.19V21.2072L240.364 13.2218H243.559L235.114 22.1236L243.624 31.0909H240.527ZM62.6718 36.6518V38.4387H60.5264V44.7272H58.2896V38.4387H56.167V36.6518H62.6718ZM74.3523 39.4352C74.6034 39.0687 74.9077 38.7785 75.2653 38.5647C75.6229 38.3509 76.0071 38.244 76.4179 38.244V40.638H75.7902C75.3033 40.638 74.9419 40.7334 74.7061 40.9243C74.4703 41.1152 74.3523 41.4474 74.3523 41.9209V44.7272H72.1156V38.3012H74.3523V39.4352ZM92.386 38.3012V44.7272H90.1379V43.8109C89.9477 44.101 89.6852 44.3378 89.3504 44.521C89.0157 44.6967 88.6315 44.7845 88.1978 44.7845C87.4522 44.7845 86.8626 44.5401 86.429 44.0514C86.0029 43.555 85.7899 42.883 85.7899 42.0354V38.3012H88.0152V41.749C88.0152 42.1156 88.1103 42.4058 88.3005 42.6196C88.4984 42.8258 88.757 42.9289 89.0766 42.9289C89.4037 42.9289 89.6624 42.8258 89.8526 42.6196C90.0428 42.4058 90.1379 42.1156 90.1379 41.749V38.3012H92.386ZM105.003 44.8074C104.425 44.8074 103.907 44.712 103.451 44.521C103.002 44.3225 102.644 44.0552 102.378 43.7192C102.119 43.3756 101.975 42.99 101.944 42.5623H104.113C104.143 42.7685 104.238 42.9289 104.398 43.0434C104.558 43.158 104.756 43.2152 104.991 43.2152C105.174 43.2152 105.319 43.177 105.425 43.1007C105.532 43.0243 105.585 42.925 105.585 42.8029C105.585 42.6425 105.497 42.5241 105.322 42.4478C105.147 42.3714 104.858 42.2874 104.455 42.1958C103.999 42.1041 103.618 42.001 103.314 41.8865C103.01 41.772 102.743 41.5849 102.515 41.3252C102.294 41.0656 102.184 40.7143 102.184 40.2714C102.184 39.8896 102.287 39.546 102.492 39.2405C102.698 38.9274 102.998 38.6792 103.394 38.496C103.797 38.3127 104.28 38.221 104.843 38.221C105.68 38.221 106.338 38.4272 106.817 38.8396C107.297 39.252 107.574 39.7941 107.65 40.4661H105.631C105.592 40.26 105.501 40.1034 105.357 39.9965C105.22 39.882 105.033 39.8247 104.797 39.8247C104.615 39.8247 104.474 39.859 104.375 39.9278C104.284 39.9965 104.238 40.092 104.238 40.2141C104.238 40.3669 104.326 40.4852 104.501 40.5692C104.676 40.6456 104.957 40.7258 105.345 40.8098C105.809 40.909 106.194 41.0198 106.498 41.142C106.81 41.2641 107.08 41.4627 107.308 41.7376C107.544 42.0049 107.662 42.3714 107.662 42.8372C107.662 43.2114 107.552 43.5474 107.331 43.8452C107.118 44.143 106.81 44.3798 106.407 44.5554C106.011 44.7234 105.543 44.8074 105.003 44.8074ZM121.588 38.244C122.319 38.244 122.897 38.4921 123.323 38.9885C123.757 39.4772 123.973 40.1416 123.973 40.9816V44.7272H121.737V41.2794C121.737 40.9129 121.642 40.6265 121.451 40.4203C121.261 40.2065 121.006 40.0996 120.687 40.0996C120.352 40.0996 120.09 40.2065 119.899 40.4203C119.709 40.6265 119.614 40.9129 119.614 41.2794V44.7272H117.377V36.2509H119.614V39.2176C119.812 38.9274 120.078 38.6945 120.413 38.5189C120.755 38.3356 121.147 38.244 121.588 38.244ZM151.818 36.6518V44.7272H149.582V41.4856H146.854V44.7272H144.617V36.6518H146.854V39.6872H149.582V36.6518H151.818ZM161.349 41.5085C161.349 40.8441 161.467 40.2638 161.703 39.7674C161.947 39.271 162.274 38.8892 162.685 38.622C163.103 38.3547 163.567 38.221 164.077 38.221C164.518 38.221 164.899 38.3089 165.218 38.4845C165.538 38.6601 165.785 38.8969 165.96 39.1947V38.3012H168.197V44.7272H165.96V43.8338C165.785 44.1316 165.534 44.3683 165.207 44.544C164.887 44.7196 164.511 44.8074 164.077 44.8074C163.567 44.8074 163.103 44.6738 162.685 44.4065C162.274 44.1392 161.947 43.7574 161.703 43.261C161.467 42.757 161.349 42.1729 161.349 41.5085ZM165.96 41.5085C165.96 41.0961 165.846 40.7716 165.618 40.5349C165.397 40.2981 165.123 40.1798 164.796 40.1798C164.461 40.1798 164.183 40.2981 163.963 40.5349C163.742 40.764 163.632 41.0885 163.632 41.5085C163.632 41.9209 163.742 42.2492 163.963 42.4936C164.183 42.7303 164.461 42.8487 164.796 42.8487C165.123 42.8487 165.397 42.7303 165.618 42.4936C165.846 42.2569 165.96 41.9285 165.96 41.5085ZM184.638 38.3012V44.7272H182.389V43.8109C182.199 44.101 181.937 44.3378 181.602 44.521C181.267 44.6967 180.883 44.7845 180.449 44.7845C179.704 44.7845 179.114 44.5401 178.681 44.0514C178.254 43.555 178.041 42.883 178.041 42.0354V38.3012H180.267V41.749C180.267 42.1156 180.362 42.4058 180.552 42.6196C180.75 42.8258 181.009 42.9289 181.328 42.9289C181.655 42.9289 181.914 42.8258 182.104 42.6196C182.294 42.4058 182.389 42.1156 182.389 41.749V38.3012H184.638ZM196.764 36.2509V44.7272H194.527V36.2509H196.764ZM207.783 37.7056C207.388 37.7056 207.068 37.5987 206.825 37.3849C206.589 37.1634 206.471 36.8885 206.471 36.5601C206.471 36.2241 206.589 35.9454 206.825 35.724C207.068 35.5025 207.388 35.3918 207.783 35.3918C208.171 35.3918 208.483 35.5025 208.719 35.724C208.963 35.9454 209.084 36.2241 209.084 36.5601C209.084 36.8885 208.963 37.1634 208.719 37.3849C208.483 37.5987 208.171 37.7056 207.783 37.7056ZM208.89 38.3012V44.7272H206.654V38.3012H208.89ZM222.968 38.244C223.706 38.244 224.292 38.4921 224.726 38.9885C225.16 39.4772 225.376 40.1416 225.376 40.9816V44.7272H223.14V41.2794C223.14 40.9129 223.045 40.6265 222.854 40.4203C222.664 40.2065 222.409 40.0996 222.09 40.0996C221.755 40.0996 221.492 40.2065 221.302 40.4203C221.112 40.6265 221.017 40.9129 221.017 41.2794V44.7272H218.78V38.3012H221.017V39.2176C221.215 38.9274 221.481 38.6945 221.816 38.5189C222.151 38.3356 222.535 38.244 222.968 38.244ZM237.582 38.221C238.015 38.221 238.392 38.3089 238.712 38.4845C239.039 38.6601 239.29 38.8969 239.465 39.1947V38.3012H241.702V44.6585C241.702 45.2618 241.587 45.804 241.359 46.285C241.131 46.7738 240.773 47.1632 240.286 47.4534C239.807 47.7436 239.199 47.8887 238.461 47.8887C237.471 47.8887 236.68 47.6558 236.087 47.19C235.493 46.7241 235.155 46.0903 235.071 45.2885H237.274C237.319 45.4947 237.433 45.655 237.616 45.7696C237.799 45.8841 238.034 45.9414 238.324 45.9414C239.084 45.9414 239.465 45.5138 239.465 44.6585V43.8338C239.29 44.1316 239.039 44.3683 238.712 44.544C238.392 44.7196 238.015 44.8074 237.582 44.8074C237.072 44.8074 236.608 44.6738 236.19 44.4065C235.779 44.1392 235.452 43.7574 235.208 43.261C234.972 42.757 234.854 42.1729 234.854 41.5085C234.854 40.8441 234.972 40.2638 235.208 39.7674C235.452 39.271 235.779 38.8892 236.19 38.622C236.608 38.3547 237.072 38.221 237.582 38.221ZM239.465 41.5085C239.465 41.0961 239.351 40.7716 239.122 40.5349C238.902 40.2981 238.628 40.1798 238.301 40.1798C237.966 40.1798 237.688 40.2981 237.468 40.5349C237.247 40.764 237.137 41.0885 237.137 41.5085C237.137 41.9209 237.247 42.2492 237.468 42.4936C237.688 42.7303 237.966 42.8487 238.301 42.8487C238.628 42.8487 238.902 42.7303 239.122 42.4936C239.351 42.2569 239.465 41.9285 239.465 41.5085Z" fill="#7C4032"/>
</svg>
