<svg width="244" height="50" viewBox="0 0 244 50" fill="none" xmlns="http://www.w3.org/2000/svg">
<g clip-path="url(#clip0_1_2248)">
<path d="M64.5654 29.6875L60.1481 21.5625H59.4855V29.6875H53.3014V7.65625H63.0509C64.8388 7.65625 66.3533 7.96875 67.5943 8.59375C68.8354 9.19792 69.7714 10.0417 70.4024 11.125C71.0335 12.1875 71.349 13.3854 71.349 14.7188C71.349 16.2188 70.9283 17.5417 70.0869 18.6875C69.2666 19.8125 68.0571 20.6146 66.4585 21.0938L71.4752 29.6875H64.5654ZM59.4855 17.375H62.5461C63.3874 17.375 64.0185 17.1771 64.4392 16.7813C64.8599 16.3854 65.0702 15.8125 65.0702 15.0625C65.0702 14.3542 64.8493 13.8021 64.4076 13.4062C63.9869 12.9896 63.3664 12.7813 62.5461 12.7813H59.4855V17.375ZM82.3963 29.9063C80.6294 29.9063 79.0413 29.5417 77.632 28.8125C76.2437 28.0833 75.1499 27.0417 74.3506 25.6875C73.5513 24.3333 73.1517 22.7396 73.1517 20.9063C73.1517 19.0938 73.5513 17.5104 74.3506 16.1563C75.171 14.8021 76.2753 13.7604 77.6635 13.0313C79.0729 12.3021 80.661 11.9375 82.4279 11.9375C84.1948 11.9375 85.7723 12.3021 87.1606 13.0313C88.5699 13.7604 89.6742 14.8021 90.4735 16.1563C91.2939 17.5104 91.7041 19.0938 91.7041 20.9063C91.7041 22.7188 91.2939 24.3125 90.4735 25.6875C89.6742 27.0417 88.5699 28.0833 87.1606 28.8125C85.7513 29.5417 84.1632 29.9063 82.3963 29.9063ZM82.3963 24.5938C83.2587 24.5938 83.9739 24.2813 84.5418 23.6563C85.1308 23.0104 85.4253 22.0938 85.4253 20.9063C85.4253 19.7188 85.1308 18.8125 84.5418 18.1875C83.9739 17.5625 83.2692 17.25 82.4279 17.25C81.5865 17.25 80.8818 17.5625 80.3139 18.1875C79.746 18.8125 79.462 19.7188 79.462 20.9063C79.462 22.1146 79.7354 23.0313 80.2823 23.6563C80.8292 24.2813 81.5339 24.5938 82.3963 24.5938ZM112.331 12.1563V29.6875H106.115V27.1875C105.589 27.9792 104.864 28.625 103.938 29.125C103.013 29.6042 101.95 29.8438 100.752 29.8438C98.6901 29.8438 97.06 29.1771 95.861 27.8438C94.6831 26.4896 94.0941 24.6563 94.0941 22.3438V12.1563H100.247V21.5625C100.247 22.5625 100.51 23.3542 101.035 23.9375C101.582 24.5 102.298 24.7813 103.181 24.7813C104.085 24.7813 104.801 24.5 105.327 23.9375C105.852 23.3542 106.115 22.5625 106.115 21.5625V12.1563H112.331ZM127.43 12C129.47 12 131.09 12.6771 132.289 14.0313C133.487 15.3646 134.087 17.1771 134.087 19.4688V29.6875H127.903V20.2812C127.903 19.2812 127.64 18.5 127.114 17.9375C126.588 17.3542 125.884 17.0625 125 17.0625C124.075 17.0625 123.349 17.3542 122.823 17.9375C122.297 18.5 122.034 19.2812 122.034 20.2812V29.6875H115.85V12.1563H122.034V14.6562C122.581 13.8646 123.317 13.2292 124.243 12.75C125.168 12.25 126.231 12 127.43 12ZM136.471 20.9063C136.471 19.0938 136.797 17.5104 137.449 16.1563C138.122 14.8021 139.037 13.7604 140.194 13.0313C141.351 12.3021 142.634 11.9375 144.043 11.9375C145.179 11.9375 146.189 12.1771 147.072 12.6562C147.977 13.1146 148.681 13.75 149.186 14.5625V6.5625H155.402V29.6875H149.186V27.25C148.702 28.0625 148.019 28.7083 147.135 29.1875C146.252 29.6667 145.211 29.9063 144.012 29.9063C142.602 29.9063 141.319 29.5417 140.162 28.8125C139.026 28.0833 138.122 27.0417 137.449 25.6875C136.797 24.3125 136.471 22.7188 136.471 20.9063ZM149.218 20.9063C149.218 19.7812 148.902 18.8958 148.271 18.25C147.661 17.6042 146.904 17.2813 145.999 17.2813C145.074 17.2813 144.306 17.6042 143.696 18.25C143.086 18.875 142.781 19.7604 142.781 20.9063C142.781 22.0313 143.086 22.9271 143.696 23.5938C144.306 24.2396 145.074 24.5625 145.999 24.5625C146.904 24.5625 147.661 24.2396 148.271 23.5938C148.902 22.9479 149.218 22.0521 149.218 20.9063ZM176.229 29.6875L171.812 21.5625H171.149V29.6875H164.965V7.65625H174.715C176.502 7.65625 178.017 7.96875 179.258 8.59375C180.499 9.19792 181.435 10.0417 182.066 11.125C182.697 12.1875 183.013 13.3854 183.013 14.7188C183.013 16.2188 182.592 17.5417 181.751 18.6875C180.93 19.8125 179.721 20.6146 178.122 21.0938L183.139 29.6875H176.229ZM171.149 17.375H174.21C175.051 17.375 175.682 17.1771 176.103 16.7813C176.524 16.3854 176.734 15.8125 176.734 15.0625C176.734 14.3542 176.513 13.8021 176.071 13.4062C175.651 12.9896 175.03 12.7813 174.21 12.7813H171.149V17.375ZM194.06 29.9063C192.293 29.9063 190.705 29.5417 189.296 28.8125C187.907 28.0833 186.814 27.0417 186.014 25.6875C185.215 24.3333 184.815 22.7396 184.815 20.9063C184.815 19.0938 185.215 17.5104 186.014 16.1563C186.835 14.8021 187.939 13.7604 189.327 13.0313C190.737 12.3021 192.325 11.9375 194.092 11.9375C195.858 11.9375 197.436 12.3021 198.824 13.0313C200.234 13.7604 201.338 14.8021 202.137 16.1563C202.958 17.5104 203.368 19.0938 203.368 20.9063C203.368 22.7188 202.958 24.3125 202.137 25.6875C201.338 27.0417 200.234 28.0833 198.824 28.8125C197.415 29.5417 195.827 29.9063 194.06 29.9063ZM194.06 24.5938C194.922 24.5938 195.638 24.2813 196.205 23.6563C196.794 23.0104 197.089 22.0938 197.089 20.9063C197.089 19.7188 196.794 18.8125 196.205 18.1875C195.638 17.5625 194.933 17.25 194.092 17.25C193.25 17.25 192.545 17.5625 191.978 18.1875C191.41 18.8125 191.126 19.7188 191.126 20.9063C191.126 22.1146 191.399 23.0313 191.946 23.6563C192.493 24.2813 193.198 24.5938 194.06 24.5938ZM204.874 20.9063C204.874 19.0938 205.252 17.5104 206.01 16.1563C206.767 14.8021 207.819 13.7604 209.165 13.0313C210.532 12.3021 212.089 11.9375 213.834 11.9375C216.085 11.9375 217.978 12.5521 219.514 13.7812C221.049 14.9896 222.038 16.6875 222.48 18.875H215.917C215.538 17.7292 214.802 17.1562 213.708 17.1562C212.93 17.1562 212.309 17.4792 211.847 18.125C211.405 18.75 211.184 19.6771 211.184 20.9063C211.184 22.1354 211.405 23.0729 211.847 23.7188C212.309 24.3646 212.93 24.6875 213.708 24.6875C214.823 24.6875 215.559 24.1146 215.917 22.9688H222.48C222.038 25.1354 221.049 26.8333 219.514 28.0625C217.978 29.2917 216.085 29.9063 213.834 29.9063C212.089 29.9063 210.532 29.5417 209.165 28.8125C207.819 28.0833 206.767 27.0417 206.01 25.6875C205.252 24.3333 204.874 22.7396 204.874 20.9063ZM236.124 29.6875L231.233 22.5V29.6875H225.049V6.5625H231.233V19.0313L236.124 12.1563H243.538L236.565 20.9688L243.665 29.6875H236.124ZM61.4307 36.4401L57.9095 43.2042V46.3542H55.1125V43.2042L51.5913 36.4401H54.7717L56.5323 40.2651L58.2929 36.4401H61.4307ZM65.5224 42.4026C65.5224 41.587 65.6692 40.8745 65.9626 40.2651C66.2655 39.6557 66.6725 39.187 67.1836 38.8589C67.7042 38.5307 68.2816 38.3667 68.9158 38.3667C69.4648 38.3667 69.9381 38.4745 70.3357 38.6901C70.7332 38.9057 71.0408 39.1964 71.2585 39.562V38.4651H74.0414V46.3542H71.2585V45.2573C71.0408 45.6229 70.7285 45.9135 70.3215 46.1292C69.9239 46.3448 69.4554 46.4526 68.9158 46.4526C68.2816 46.4526 67.7042 46.2885 67.1836 45.9604C66.6725 45.6323 66.2655 45.1635 65.9626 44.5542C65.6692 43.9354 65.5224 43.2182 65.5224 42.4026ZM71.2585 42.4026C71.2585 41.8964 71.1166 41.4979 70.8326 41.2073C70.5581 40.9167 70.2173 40.7714 69.8103 40.7714C69.3938 40.7714 69.0484 40.9167 68.7739 41.2073C68.4994 41.4885 68.3621 41.887 68.3621 42.4026C68.3621 42.9089 68.4994 43.312 68.7739 43.612C69.0484 43.9026 69.3938 44.0479 69.8103 44.0479C70.2173 44.0479 70.5581 43.9026 70.8326 43.612C71.1166 43.3214 71.2585 42.9182 71.2585 42.4026ZM82.1013 39.8573C82.4137 39.4073 82.7923 39.051 83.2372 38.7885C83.682 38.526 84.16 38.3948 84.6712 38.3948V41.3339H83.8903C83.2845 41.3339 82.8349 41.451 82.5414 41.6854C82.248 41.9198 82.1013 42.3276 82.1013 42.9089V46.3542H79.3184V38.4651H82.1013V39.8573ZM88.906 42.4026C88.906 41.587 89.0527 40.8745 89.3461 40.2651C89.649 39.6557 90.0607 39.187 90.5814 38.8589C91.102 38.5307 91.6793 38.3667 92.3135 38.3667C92.8247 38.3667 93.279 38.4745 93.6766 38.6901C94.0836 38.8964 94.4007 39.1823 94.6279 39.5479V35.9479H97.4249V46.3542H94.6279V45.2573C94.4101 45.6229 94.1025 45.9135 93.705 46.1292C93.3074 46.3448 92.8389 46.4526 92.2993 46.4526C91.6652 46.4526 91.0878 46.2885 90.5672 45.9604C90.056 45.6323 89.649 45.1635 89.3461 44.5542C89.0527 43.9354 88.906 43.2182 88.906 42.4026ZM94.6421 42.4026C94.6421 41.8964 94.5001 41.4979 94.2161 41.2073C93.9416 40.9167 93.6008 40.7714 93.1938 40.7714C92.7773 40.7714 92.4319 40.9167 92.1574 41.2073C91.8829 41.4885 91.7456 41.887 91.7456 42.4026C91.7456 42.9089 91.8829 43.312 92.1574 43.612C92.4319 43.9026 92.7773 44.0479 93.1938 44.0479C93.6008 44.0479 93.9416 43.9026 94.2161 43.612C94.5001 43.3214 94.6421 42.9182 94.6421 42.4026ZM120.797 36.4401V46.3542H118.014V40.8839L116.126 46.3542H113.797L111.895 40.8417V46.3542H109.112V36.4401H112.477L114.99 42.8807L117.446 36.4401H120.797ZM125.618 42.4026C125.618 41.587 125.765 40.8745 126.058 40.2651C126.361 39.6557 126.768 39.187 127.279 38.8589C127.8 38.5307 128.377 38.3667 129.011 38.3667C129.56 38.3667 130.034 38.4745 130.431 38.6901C130.829 38.9057 131.136 39.1964 131.354 39.562V38.4651H134.137V46.3542H131.354V45.2573C131.136 45.6229 130.824 45.9135 130.417 46.1292C130.019 46.3448 129.551 46.4526 129.011 46.4526C128.377 46.4526 127.8 46.2885 127.279 45.9604C126.768 45.6323 126.361 45.1635 126.058 44.5542C125.765 43.9354 125.618 43.2182 125.618 42.4026ZM131.354 42.4026C131.354 41.8964 131.212 41.4979 130.928 41.2073C130.654 40.9167 130.313 40.7714 129.906 40.7714C129.489 40.7714 129.144 40.9167 128.869 41.2073C128.595 41.4885 128.458 41.887 128.458 42.4026C128.458 42.9089 128.595 43.312 128.869 43.612C129.144 43.9026 129.489 44.0479 129.906 44.0479C130.313 44.0479 130.654 43.9026 130.928 43.612C131.212 43.3214 131.354 42.9182 131.354 42.4026ZM140.82 37.7339C140.328 37.7339 139.93 37.6026 139.627 37.3401C139.334 37.0682 139.187 36.7307 139.187 36.3276C139.187 35.9151 139.334 35.5729 139.627 35.301C139.93 35.0292 140.328 34.8932 140.82 34.8932C141.303 34.8932 141.691 35.0292 141.984 35.301C142.287 35.5729 142.439 35.9151 142.439 36.3276C142.439 36.7307 142.287 37.0682 141.984 37.3401C141.691 37.6026 141.303 37.7339 140.82 37.7339ZM142.197 38.4651V46.3542H139.414V38.4651H142.197ZM152.685 38.3948C153.603 38.3948 154.332 38.6995 154.871 39.3089C155.411 39.9089 155.68 40.7245 155.68 41.7557V46.3542H152.898V42.1214C152.898 41.6714 152.779 41.3198 152.543 41.0667C152.306 40.8042 151.989 40.6729 151.591 40.6729C151.175 40.6729 150.848 40.8042 150.612 41.0667C150.375 41.3198 150.257 41.6714 150.257 42.1214V46.3542H147.474V38.4651H150.257V39.5901C150.503 39.2339 150.834 38.9479 151.251 38.7323C151.667 38.5073 152.145 38.3948 152.685 38.3948ZM165.598 44.0057V46.3542H164.391C162.356 46.3542 161.339 45.3557 161.339 43.3589V40.7573H160.359V38.4651H161.339V36.5526H164.136V38.4651H165.584V40.7573H164.136V43.401C164.136 43.6167 164.183 43.7714 164.278 43.8651C164.382 43.9589 164.552 44.0057 164.789 44.0057H165.598ZM178.177 42.3182C178.177 42.5339 178.163 42.7495 178.134 42.9651H172.867C172.895 43.3964 173.013 43.7198 173.222 43.9354C173.439 44.1417 173.714 44.2448 174.045 44.2448C174.509 44.2448 174.84 44.0385 175.039 43.626H178.006C177.883 44.1698 177.642 44.6573 177.282 45.0885C176.932 45.5104 176.487 45.8432 175.948 46.087C175.408 46.3307 174.812 46.4526 174.159 46.4526C173.373 46.4526 172.673 46.2885 172.057 45.9604C171.452 45.6323 170.974 45.1635 170.623 44.5542C170.283 43.9448 170.112 43.2276 170.112 42.4026C170.112 41.5776 170.283 40.8651 170.623 40.2651C170.964 39.6557 171.437 39.187 172.043 38.8589C172.658 38.5307 173.364 38.3667 174.159 38.3667C174.944 38.3667 175.64 38.526 176.246 38.8448C176.852 39.1635 177.325 39.6229 177.666 40.2229C178.006 40.8135 178.177 41.512 178.177 42.3182ZM175.337 41.6292C175.337 41.2917 175.224 41.0292 174.996 40.8417C174.769 40.6448 174.485 40.5464 174.145 40.5464C173.804 40.5464 173.525 40.6401 173.307 40.8276C173.089 41.0057 172.947 41.2729 172.881 41.6292H175.337ZM188.218 38.3948C189.136 38.3948 189.865 38.6995 190.404 39.3089C190.944 39.9089 191.213 40.7245 191.213 41.7557V46.3542H188.431V42.1214C188.431 41.6714 188.312 41.3198 188.076 41.0667C187.839 40.8042 187.522 40.6729 187.124 40.6729C186.708 40.6729 186.381 40.8042 186.145 41.0667C185.908 41.3198 185.79 41.6714 185.79 42.1214V46.3542H183.007V38.4651H185.79V39.5901C186.036 39.2339 186.367 38.9479 186.784 38.7323C187.2 38.5073 187.678 38.3948 188.218 38.3948ZM195.978 42.4026C195.978 41.587 196.124 40.8745 196.418 40.2651C196.721 39.6557 197.128 39.187 197.639 38.8589C198.16 38.5307 198.737 38.3667 199.371 38.3667C199.92 38.3667 200.393 38.4745 200.791 38.6901C201.189 38.9057 201.496 39.1964 201.714 39.562V38.4651H204.497V46.3542H201.714V45.2573C201.496 45.6229 201.184 45.9135 200.777 46.1292C200.379 46.3448 199.911 46.4526 199.371 46.4526C198.737 46.4526 198.16 46.2885 197.639 45.9604C197.128 45.6323 196.721 45.1635 196.418 44.5542C196.124 43.9354 195.978 43.2182 195.978 42.4026ZM201.714 42.4026C201.714 41.8964 201.572 41.4979 201.288 41.2073C201.013 40.9167 200.673 40.7714 200.266 40.7714C199.849 40.7714 199.504 40.9167 199.229 41.2073C198.955 41.4885 198.817 41.887 198.817 42.4026C198.817 42.9089 198.955 43.312 199.229 43.612C199.504 43.9026 199.849 44.0479 200.266 44.0479C200.673 44.0479 201.013 43.9026 201.288 43.612C201.572 43.3214 201.714 42.9182 201.714 42.4026ZM214.985 38.3948C215.903 38.3948 216.632 38.6995 217.172 39.3089C217.711 39.9089 217.981 40.7245 217.981 41.7557V46.3542H215.198V42.1214C215.198 41.6714 215.08 41.3198 214.843 41.0667C214.606 40.8042 214.289 40.6729 213.892 40.6729C213.475 40.6729 213.149 40.8042 212.912 41.0667C212.675 41.3198 212.557 41.6714 212.557 42.1214V46.3542H209.774V38.4651H212.557V39.5901C212.803 39.2339 213.135 38.9479 213.551 38.7323C213.967 38.5073 214.446 38.3948 214.985 38.3948ZM222.745 42.4026C222.745 41.587 222.915 40.8745 223.256 40.2651C223.597 39.6557 224.07 39.187 224.676 38.8589C225.291 38.5307 225.991 38.3667 226.777 38.3667C227.79 38.3667 228.642 38.6432 229.333 39.1964C230.024 39.7401 230.469 40.5042 230.667 41.4885H227.714C227.544 40.9729 227.212 40.7151 226.72 40.7151C226.37 40.7151 226.091 40.8604 225.882 41.151C225.684 41.4323 225.584 41.8495 225.584 42.4026C225.584 42.9557 225.684 43.3776 225.882 43.6682C226.091 43.9589 226.37 44.1042 226.72 44.1042C227.222 44.1042 227.553 43.8464 227.714 43.3307H230.667C230.469 44.3057 230.024 45.0698 229.333 45.6229C228.642 46.176 227.79 46.4526 226.777 46.4526C225.991 46.4526 225.291 46.2885 224.676 45.9604C224.07 45.6323 223.597 45.1635 223.256 44.5542C222.915 43.9448 222.745 43.2276 222.745 42.4026ZM243.126 42.3182C243.126 42.5339 243.111 42.7495 243.083 42.9651H237.815C237.844 43.3964 237.962 43.7198 238.17 43.9354C238.388 44.1417 238.663 44.2448 238.994 44.2448C239.458 44.2448 239.789 44.0385 239.988 43.626H242.955C242.832 44.1698 242.591 44.6573 242.231 45.0885C241.881 45.5104 241.436 45.8432 240.896 46.087C240.357 46.3307 239.761 46.4526 239.107 46.4526C238.322 46.4526 237.621 46.2885 237.006 45.9604C236.4 45.6323 235.922 45.1635 235.572 44.5542C235.231 43.9448 235.061 43.2276 235.061 42.4026C235.061 41.5776 235.231 40.8651 235.572 40.2651C235.913 39.6557 236.386 39.187 236.992 38.8589C237.607 38.5307 238.312 38.3667 239.107 38.3667C239.893 38.3667 240.589 38.526 241.195 38.8448C241.8 39.1635 242.274 39.6229 242.614 40.2229C242.955 40.8135 243.126 41.512 243.126 42.3182ZM240.286 41.6292C240.286 41.2917 240.172 41.0292 239.945 40.8417C239.718 40.6448 239.434 40.5464 239.093 40.5464C238.752 40.5464 238.473 40.6401 238.255 40.8276C238.038 41.0057 237.896 41.2729 237.83 41.6292H240.286Z" fill="#7C4032"/>
<path d="M7.37452 24.9375C7.30274 25.0599 7.27634 25.2038 7.2999 25.3438C7.32346 25.4838 7.39545 25.6109 7.50325 25.7029C11.5281 29.1238 12.4897 34.567 12.6413 35.6231C12.6619 35.7664 12.7331 35.8975 12.842 35.9924C12.9509 36.0873 13.0901 36.1398 13.2344 36.1401C13.2627 36.1398 13.291 36.1376 13.3191 36.1333C13.4763 36.1106 13.618 36.0262 13.7133 35.8987C13.8086 35.7711 13.8496 35.6109 13.8274 35.4531C13.641 34.1554 12.8904 30.2753 10.3133 26.9308C11.8925 27.7072 13.4631 28.7319 14.9143 30.3161C16.4663 32.1171 17.4109 34.7974 17.4202 34.823C17.4454 34.8985 17.4853 34.9684 17.5375 35.0284C17.5898 35.0884 17.6534 35.1374 17.7247 35.1725C17.796 35.2076 17.8735 35.2283 17.9528 35.2331C18.0321 35.2379 18.1115 35.2269 18.1865 35.2006C18.2614 35.1744 18.3305 35.1335 18.3896 35.0802C18.4488 35.027 18.4967 34.9625 18.5308 34.8905C18.5649 34.8185 18.5844 34.7405 18.5882 34.6608C18.5919 34.5812 18.58 34.5016 18.5529 34.4267C18.5131 34.311 17.5744 31.6435 15.947 29.6766C15.8233 27.9308 15.3887 24.4444 13.8731 21.2181C15.2614 22.508 16.4695 23.9806 17.4642 25.5957L17.4753 25.6153C18.4742 27.246 19.2729 28.992 19.8541 30.8152V30.8212V30.8297C20.1083 31.6231 20.415 32.9249 20.6166 33.8791C20.6452 34.014 20.7192 34.135 20.826 34.2218C20.9329 34.3086 21.0662 34.356 21.2036 34.3561C21.2458 34.356 21.2878 34.3518 21.329 34.3433C21.4847 34.3099 21.6209 34.2158 21.7076 34.0818C21.7943 33.9477 21.8245 33.7846 21.7916 33.6282C21.5984 32.72 21.3129 31.5023 21.0588 30.6587C21.6993 28.8611 22.5544 27.1479 23.6054 25.5566L23.6519 25.4878C24.6606 23.9677 25.8662 22.589 27.2372 21.3882C25.5682 24.7046 25.0625 28.3305 24.9134 29.9972V30.0057C24.9134 30.0099 24.9134 30.015 24.9134 30.0193C24.7685 32.7863 25.3285 34.7149 25.3522 34.7957C25.4024 34.9427 25.5071 35.0646 25.6445 35.1359C25.782 35.2073 25.9416 35.2226 26.0901 35.1787C26.2385 35.1349 26.3643 35.0352 26.4414 34.9005C26.5184 34.7658 26.5407 34.6064 26.5035 34.4556C26.4984 34.4386 26.0104 32.7379 26.1019 30.3118C27.3843 29.0026 28.8606 27.9004 30.4784 27.0439C29.5228 28.339 28.8036 29.8798 28.3554 31.612C27.7937 33.7898 27.8598 35.493 27.8632 35.5645C27.87 35.7194 27.936 35.8657 28.0476 35.973C28.1592 36.0802 28.3077 36.1401 28.4622 36.1401H28.4892C28.6483 36.1331 28.7981 36.0629 28.9056 35.9451C29.0132 35.8273 29.0697 35.6714 29.0628 35.5118C29.0628 35.4488 28.8417 29.157 33.4732 25.7326C33.589 25.647 33.6704 25.5225 33.7025 25.3817C33.7347 25.2409 33.7154 25.0932 33.6482 24.9655C33.581 24.8378 33.4703 24.7386 33.3363 24.6858C33.2024 24.6331 33.054 24.6304 32.9183 24.6782C30.3463 25.5838 28.214 26.8041 26.3214 28.4606C26.7052 25.9946 27.6438 22.2164 29.9244 19.4281C30.0144 19.3188 30.0631 19.1811 30.0619 19.0394C30.0607 18.8976 30.0097 18.7608 29.9179 18.653C29.826 18.5453 29.6993 18.4735 29.5599 18.4505C29.4205 18.4273 29.2775 18.4544 29.156 18.5267C27.6175 19.4298 25.442 21.0582 23.3817 23.8006C22.3931 20.3491 22.2694 18.3031 23.1826 14.6755C23.2147 14.547 23.2039 14.4115 23.1516 14.2899C23.0994 14.1683 23.0088 14.0673 22.8937 14.0026C22.7786 13.9379 22.6454 13.913 22.5148 13.9318C22.3843 13.9506 22.2635 14.012 22.1711 14.1066C19.0205 17.3379 17.859 20.7776 17.5117 23.5081C15.5784 20.8456 13.5182 19.2206 12.0356 18.292C11.916 18.2174 11.774 18.1874 11.6346 18.2071C11.4952 18.2269 11.3671 18.2953 11.2727 18.4002C11.1783 18.5051 11.1238 18.64 11.1184 18.7812C11.1131 18.9225 11.1574 19.0612 11.2435 19.173C13.458 22.0336 14.2933 25.8534 14.6076 28.3296C12.4973 26.464 10.2489 25.5022 8.1022 24.6808C7.97021 24.6306 7.82481 24.6289 7.69166 24.6759C7.55857 24.7229 7.44624 24.8156 7.37452 24.9375ZM22.5049 25.0583C21.7088 26.2818 21.0235 27.5744 20.4573 28.9206C19.9453 27.6074 19.3217 26.3408 18.5935 25.1348C18.6503 22.8831 19.2535 19.7776 21.5442 16.6917C21.1113 19.5557 21.4798 21.7011 22.5049 25.0583Z" fill="#7C4032"/>
<path d="M39.1489 34.0168C38.3271 33.3918 36.8522 34.0406 34.9978 35.8442C34.983 35.8581 34.9692 35.8729 34.9562 35.8884C33.572 37.5373 28.4949 40.8103 25.0893 41.5782L25.0698 41.5825C23.2374 42.0595 22.5359 42.0212 22.2987 41.9719C22.3834 41.7771 22.6418 41.4183 23.0781 41.0169C24.1735 40.0084 25.3579 38.7261 24.7843 37.7525C24.3006 36.9327 22.8765 36.5058 15.795 38.9166C12.475 40.0467 9.01092 39.244 5.49942 36.5296C3.82943 35.2208 2.34907 33.6851 1.10093 31.9666C1.02959 31.8585 0.925449 31.7765 0.803954 31.7325C0.682453 31.6885 0.550078 31.6851 0.426451 31.7226C0.302826 31.7601 0.19454 31.8366 0.117653 31.9407C0.0407676 32.0449 -0.000623161 32.1712 -0.00037929 32.3008C-0.00449266 32.3859 0.0126909 32.4707 0.0496035 32.5474C1.4605 36.402 3.92377 39.7801 7.15762 42.2954C10.3915 44.8106 14.2654 46.3615 18.3362 46.7704C22.4069 47.1794 26.5102 46.4301 30.1766 44.608C33.8429 42.786 36.9244 39.965 39.0684 36.4676C39.0695 36.4649 39.0709 36.4622 39.0726 36.4599L39.2234 36.2048L39.2361 36.1827C39.7385 35.2507 39.7054 34.4403 39.1489 34.0168ZM38.1856 35.6002L38.0433 35.8383C34.2607 41.9949 27.7079 45.6692 20.5069 45.6692C13.3908 45.6692 6.84978 41.9481 3.12312 36.0789C3.81009 36.7293 4.53881 37.3338 5.30459 37.8885C6.92183 39.0518 8.56872 39.8537 10.2012 40.2695C12.1716 40.7913 14.2516 40.7176 16.1805 40.0578C22.092 38.0458 23.4483 38.2601 23.7203 38.3698C23.6779 38.5305 23.4526 39.0365 22.2657 40.1292C21.5337 40.8018 20.7526 41.7721 21.1856 42.5722C21.6185 43.3725 22.8214 43.4116 25.3612 42.7517C29.0286 41.9217 34.3073 38.505 35.8526 36.6895C37.2987 35.2898 38.1238 34.9888 38.3889 34.9888C38.3873 35.0866 38.3491 35.2932 38.1856 35.6002Z" fill="#7C4032"/>
<path d="M40.9676 17.4552C39.5575 13.6 37.0947 10.2211 33.8609 7.70514C30.6272 5.18919 26.7531 3.63781 22.6821 3.22854C18.611 2.81926 14.5074 3.56861 10.8408 5.39087C7.17417 7.21311 4.09264 10.0346 1.94885 13.5325L1.94461 13.5394L1.79382 13.7945L1.78111 13.8174C1.27874 14.7528 1.31093 15.5607 1.86582 15.9841C2.68758 16.6091 4.16249 15.9612 6.01696 14.1575C6.03184 14.1436 6.04572 14.1285 6.05845 14.1125C7.44693 12.462 12.524 9.18894 15.9271 8.42191L15.9465 8.4168C17.779 7.94061 18.4805 7.97889 18.7176 8.02816C18.6329 8.2229 18.3746 8.58175 17.9391 8.98227C16.8429 9.99081 15.6585 11.2732 16.2329 12.2476C16.7166 13.0674 18.1399 13.4943 25.2213 11.0835C28.5414 9.95337 32.0054 10.7561 35.5178 13.4696C37.1879 14.7783 38.668 16.3144 39.9154 18.0335C39.9705 18.1157 40.0447 18.1831 40.1317 18.2298C40.2187 18.2765 40.3158 18.3011 40.4144 18.3013C40.4496 18.3012 40.4848 18.2981 40.5195 18.292C40.6588 18.2673 40.7849 18.1941 40.8755 18.0851C40.9662 17.9762 41.0156 17.8387 41.0151 17.6968C41.0193 17.6135 41.003 17.5306 40.9676 17.4552ZM35.711 12.1108C34.0946 10.9483 32.4468 10.1464 30.8152 9.72889C28.8454 9.20795 26.7663 9.28217 24.8384 9.94232C18.9269 11.9543 17.5715 11.74 17.2986 11.6303C17.341 11.4696 17.5664 10.9636 18.7532 9.87092C19.4852 9.19743 20.2654 8.22717 19.8325 7.42785C19.3996 6.62847 18.1967 6.58769 15.6569 7.24842C11.9903 8.07837 6.71078 11.4943 5.16808 13.3098C3.72196 14.7095 2.89682 15.0104 2.63166 15.0104C2.63166 14.9101 2.67063 14.7044 2.83498 14.3965L2.97646 14.1593C6.7599 8.00269 13.3119 4.32743 20.5128 4.32743C27.629 4.32743 34.1691 8.04857 37.8958 13.9186C37.208 13.2683 36.4781 12.6644 35.711 12.1108Z" fill="#7C4032"/>
</g>
<defs>
<clipPath id="clip0_1_2248">
<rect width="244" height="50" fill="white"/>
</clipPath>
</defs>
</svg>
